<svg width="21" height="20" viewBox="0 0 21 20" fill="none" xmlns="http://www.w3.org/2000/svg">
<path d="M15.0415 18.9587C14.0998 18.9587 13.1082 18.7337 12.0832 18.3003C11.0832 17.8753 10.0748 17.292 9.0915 16.5837C8.1165 15.867 7.17484 15.067 6.28317 14.192C5.39984 13.3003 4.59984 12.3587 3.8915 11.392C3.17484 10.392 2.59984 9.39199 2.1915 8.42533C1.75817 7.39199 1.5415 6.39199 1.5415 5.45033C1.5415 4.80033 1.65817 4.18366 1.88317 3.60866C2.1165 3.01699 2.4915 2.46699 2.99984 1.99199C3.6415 1.35866 4.37484 1.04199 5.15817 1.04199C5.48317 1.04199 5.8165 1.11699 6.09984 1.25033C6.42484 1.40033 6.69984 1.62533 6.89984 1.92533L8.83317 4.65033C9.00817 4.89199 9.1415 5.12533 9.23317 5.35866C9.3415 5.60866 9.39984 5.85866 9.39984 6.10033C9.39984 6.41699 9.30817 6.72533 9.13317 7.01699C9.00817 7.24199 8.8165 7.48366 8.57484 7.72533L8.00817 8.31699C8.0165 8.34199 8.02484 8.35866 8.03317 8.37533C8.13317 8.55033 8.33317 8.85033 8.7165 9.30033C9.12484 9.76699 9.50817 10.192 9.8915 10.5837C10.3832 11.067 10.7915 11.4503 11.1748 11.767C11.6498 12.167 11.9582 12.367 12.1415 12.4587L12.1248 12.5003L12.7332 11.9003C12.9915 11.642 13.2415 11.4503 13.4832 11.3253C13.9415 11.042 14.5248 10.992 15.1082 11.2337C15.3248 11.3253 15.5582 11.4503 15.8082 11.6253L18.5748 13.592C18.8832 13.8003 19.1082 14.067 19.2415 14.3837C19.3665 14.7003 19.4248 14.992 19.4248 15.2837C19.4248 15.6837 19.3332 16.0837 19.1582 16.4587C18.9832 16.8337 18.7665 17.1587 18.4915 17.4587C18.0165 17.9837 17.4998 18.3587 16.8998 18.6003C16.3248 18.8337 15.6998 18.9587 15.0415 18.9587ZM5.15817 2.29199C4.69984 2.29199 4.27484 2.49199 3.8665 2.89199C3.48317 3.25033 3.2165 3.64199 3.04984 4.06699C2.87484 4.50033 2.7915 4.95866 2.7915 5.45033C2.7915 6.22533 2.97484 7.06699 3.3415 7.93366C3.7165 8.81699 4.2415 9.73366 4.90817 10.6503C5.57484 11.567 6.33317 12.4587 7.1665 13.3003C7.99984 14.1253 8.89984 14.892 9.82484 15.567C10.7248 16.2253 11.6498 16.7587 12.5665 17.142C13.9915 17.7503 15.3248 17.892 16.4248 17.4337C16.8498 17.2587 17.2248 16.992 17.5665 16.6087C17.7582 16.4003 17.9082 16.1753 18.0332 15.9087C18.1332 15.7003 18.1832 15.4837 18.1832 15.267C18.1832 15.1337 18.1582 15.0003 18.0915 14.8503C18.0665 14.8003 18.0165 14.7087 17.8582 14.6003L15.0915 12.6337C14.9248 12.517 14.7748 12.4337 14.6332 12.3753C14.4498 12.3003 14.3748 12.2253 14.0915 12.4003C13.9248 12.4837 13.7748 12.6087 13.6082 12.7753L12.9748 13.4003C12.6498 13.717 12.1498 13.792 11.7665 13.6503L11.5415 13.5503C11.1998 13.367 10.7998 13.0837 10.3582 12.7087C9.95817 12.367 9.52484 11.967 8.99984 11.4503C8.5915 11.0337 8.18317 10.592 7.75817 10.1003C7.3665 9.64199 7.08317 9.25033 6.90817 8.92533L6.80817 8.67533C6.75817 8.48366 6.7415 8.37533 6.7415 8.25866C6.7415 7.95866 6.84984 7.69199 7.05817 7.48366L7.68317 6.83366C7.84984 6.66699 7.97484 6.50866 8.05817 6.36699C8.12484 6.25866 8.14984 6.16699 8.14984 6.08366C8.14984 6.01699 8.12484 5.91699 8.08317 5.81699C8.02484 5.68366 7.93317 5.53366 7.8165 5.37533L5.88317 2.64199C5.79984 2.52533 5.69984 2.44199 5.57484 2.38366C5.4415 2.32533 5.29984 2.29199 5.15817 2.29199ZM12.1248 12.5087L11.9915 13.0753L12.2165 12.492C12.1748 12.4837 12.1415 12.492 12.1248 12.5087Z" fill="white"/>
</svg>
