<svg width="16" height="16" viewBox="0 0 16 16" fill="none" xmlns="http://www.w3.org/2000/svg">
<path d="M1.33343 15.1662C1.20009 15.1662 1.07341 15.1128 0.980073 15.0195C0.853406 14.8928 0.800105 14.7062 0.846772 14.5328L1.68678 11.3928C1.12678 10.3528 0.833426 9.17951 0.833426 7.99284C0.833426 4.03951 4.04676 0.826172 8.00009 0.826172C11.9534 0.826172 15.1668 4.03951 15.1668 7.99284C15.1668 11.9462 11.9534 15.1595 8.00009 15.1595C6.79343 15.1595 5.61344 14.8595 4.56011 14.2862L1.46677 15.1462C1.4201 15.1595 1.38009 15.1662 1.33343 15.1662ZM4.62676 13.2528C4.71343 13.2528 4.8001 13.2795 4.8801 13.3195C5.8201 13.8729 6.90009 14.1662 8.00009 14.1662C11.4001 14.1662 14.1668 11.3995 14.1668 7.99951C14.1668 4.59951 11.4001 1.83285 8.00009 1.83285C4.60009 1.83285 1.83343 4.59951 1.83343 7.99951C1.83343 9.08618 2.12009 10.1462 2.66009 11.0795C2.72675 11.1928 2.74676 11.3328 2.71343 11.4595L2.04676 13.9528L4.50009 13.2728C4.54009 13.2595 4.58676 13.2528 4.62676 13.2528Z" fill="#A37130"/>
<path d="M9.82682 11.8395C9.41349 11.8395 8.98683 11.7462 8.54016 11.5529C8.12016 11.3729 7.70016 11.1329 7.2935 10.8329C6.8935 10.5395 6.50018 10.2062 6.14018 9.8462C5.78018 9.47953 5.44682 9.09288 5.15348 8.69288C4.85348 8.27288 4.61348 7.85953 4.44014 7.45287C4.25348 7.01287 4.16016 6.57954 4.16016 6.16621C4.16016 5.87287 4.21348 5.59287 4.31348 5.33287C4.42014 5.05954 4.59348 4.81287 4.82015 4.59954C5.24682 4.17954 5.86018 4.02622 6.34684 4.25955C6.51351 4.33288 6.65351 4.45288 6.76017 4.61288L7.53349 5.69953C7.61349 5.8062 7.67351 5.91953 7.72017 6.03286C7.77351 6.1662 7.80684 6.29955 7.80684 6.42622C7.80684 6.59955 7.76016 6.77288 7.66683 6.92622C7.60683 7.02622 7.52015 7.14622 7.40682 7.25955L7.32015 7.35287C7.36015 7.40621 7.40681 7.47286 7.48014 7.55286C7.62014 7.71286 7.77348 7.8862 7.94015 8.05286C8.10681 8.21286 8.27348 8.37287 8.44015 8.51287C8.52014 8.57953 8.58684 8.63287 8.64018 8.66621L8.73348 8.57286C8.85348 8.45286 8.97351 8.35955 9.09351 8.29955C9.31351 8.15955 9.65349 8.12621 9.95349 8.25288C10.0602 8.29288 10.1668 8.35287 10.2802 8.43287L11.3935 9.21953C11.5468 9.3262 11.6668 9.47287 11.7468 9.63953C11.8135 9.8062 11.8402 9.95288 11.8402 10.1062C11.8402 10.3062 11.7935 10.4995 11.7068 10.6862C11.6202 10.8595 11.5201 11.0129 11.4001 11.1529C11.1868 11.3862 10.9402 11.5595 10.6735 11.6729C10.4068 11.7862 10.1202 11.8395 9.82682 11.8395ZM5.86015 5.15953C5.82015 5.15953 5.68685 5.15953 5.52018 5.3262C5.39352 5.4462 5.30683 5.57288 5.24683 5.71288C5.18683 5.85288 5.16016 6.01288 5.16016 6.17288C5.16016 6.45288 5.22681 6.75286 5.36015 7.07286C5.50015 7.4062 5.70683 7.75955 5.96016 8.11288C6.22016 8.46622 6.5135 8.81954 6.84017 9.14621C7.16684 9.46621 7.51349 9.7662 7.87349 10.0329C8.22016 10.2862 8.57351 10.4862 8.92684 10.6395C9.43351 10.8595 9.90015 10.9129 10.2802 10.7529C10.4135 10.6995 10.5335 10.6062 10.6535 10.4862C10.7135 10.4195 10.7602 10.3529 10.8002 10.2662C10.8202 10.2195 10.8335 10.1662 10.8335 10.1195C10.8335 10.1062 10.8335 10.0862 10.8135 10.0462L9.70015 9.27288C9.65349 9.23954 9.60681 9.21286 9.56681 9.19953C9.54015 9.21286 9.50017 9.23287 9.42684 9.3062L9.1735 9.55954C8.98017 9.75287 8.67351 9.8062 8.42684 9.71953L8.30684 9.66621C8.15351 9.58621 7.98016 9.46621 7.78682 9.29955C7.60016 9.13955 7.42018 8.97287 7.22685 8.7862C7.04018 8.59287 6.8735 8.41287 6.7135 8.2262C6.54017 8.01954 6.42017 7.85288 6.34017 7.71288L6.26685 7.53954C6.24685 7.47287 6.24015 7.39954 6.24015 7.33287C6.24015 7.14621 6.30685 6.97953 6.43351 6.8462L6.68685 6.58621C6.76018 6.51288 6.78684 6.47288 6.80017 6.44622C6.78017 6.39955 6.75351 6.35954 6.72017 6.31287L5.94014 5.21288L5.86015 5.15953Z" fill="#A37130"/>
</svg>
