<svg width="24" height="24" viewBox="0 0 24 24" fill="none" xmlns="http://www.w3.org/2000/svg">
<path d="M10.5 23.5V20C10.5 19.1716 11.1716 18.5 12 18.5C12.8284 18.5 13.5 19.1716 13.5 20V23.5" stroke="#CAB16C" stroke-linecap="round" stroke-linejoin="round"/>
<path fill-rule="evenodd" clip-rule="evenodd" d="M8.5 16.5H5.5V13.5C5.5 12.6716 6.17157 12 7 12C7.82843 12 8.5 12.6716 8.5 13.5V16.5Z" stroke="#CAB16C" stroke-linecap="round" stroke-linejoin="round"/>
<path fill-rule="evenodd" clip-rule="evenodd" d="M8.5 10H5.5V7C5.5 6.17157 6.17157 5.5 7 5.5C7.82843 5.5 8.5 6.17157 8.5 7V10Z" stroke="#CAB16C" stroke-linecap="round" stroke-linejoin="round"/>
<path fill-rule="evenodd" clip-rule="evenodd" d="M13.5 16.5H10.5V13.5C10.5 12.6716 11.1716 12 12 12C12.8284 12 13.5 12.6716 13.5 13.5V16.5Z" stroke="#CAB16C" stroke-linecap="round" stroke-linejoin="round"/>
<path fill-rule="evenodd" clip-rule="evenodd" d="M13.5 10H10.5V7C10.5 6.17157 11.1716 5.5 12 5.5C12.8284 5.5 13.5 6.17157 13.5 7V10Z" stroke="#CAB16C" stroke-linecap="round" stroke-linejoin="round"/>
<path fill-rule="evenodd" clip-rule="evenodd" d="M18.5 16.5H15.5V13.5C15.5 12.6716 16.1716 12 17 12C17.8284 12 18.5 12.6716 18.5 13.5V16.5Z" stroke="#CAB16C" stroke-linecap="round" stroke-linejoin="round"/>
<path fill-rule="evenodd" clip-rule="evenodd" d="M18.5 10H15.5V7C15.5 6.17157 16.1716 5.5 17 5.5C17.8284 5.5 18.5 6.17157 18.5 7V10Z" stroke="#CAB16C" stroke-linecap="round" stroke-linejoin="round"/>
<path fill-rule="evenodd" clip-rule="evenodd" d="M20.5 3.8C20.5001 3.60247 20.4416 3.40935 20.332 3.245L18.8 0.945005C18.6139 0.666049 18.3004 0.49895 17.965 0.500005H6.03501C5.69967 0.49895 5.38612 0.666049 5.20001 0.945005L3.66501 3.245C3.55648 3.40969 3.49908 3.60278 3.50001 3.8V22.5C3.50001 23.0523 3.94773 23.5 4.50001 23.5H19.5C20.0523 23.5 20.5 23.0523 20.5 22.5V3.8Z" stroke="#CAB16C" stroke-linecap="round" stroke-linejoin="round"/>
<path d="M3.54712 3.5H20.4531" stroke="#CAB16C" stroke-linecap="round" stroke-linejoin="round"/>
</svg>
