<svg xmlns="http://www.w3.org/2000/svg" enable-background="new 0 0 512 512" viewBox="0 0 512 512" id="cancel-calendar">
  <polygon fill="#ebeadf" fill-rule="evenodd" points="432 43 80 43 80 507 432 507" clip-rule="evenodd"></polygon>
  <rect width="352" height="85" x="80" y="43" fill="#db3328"></rect>
  <path fill="#c4c1ab" d="M166 86c-23.7 0-43-19.3-43-43s19.3-43 43-43 43 19.3 43 43h-10c0-18.2-14.8-33-33-33s-33 14.8-33 33 14.8 33 33 33V86zM256 86c-23.7 0-43-19.3-43-43s19.3-43 43-43 43 19.3 43 43h-10c0-18.2-14.8-33-33-33s-33 14.8-33 33 14.8 33 33 33V86zM346 86c-23.7 0-43-19.3-43-43s19.3-43 43-43 43 19.3 43 43h-10c0-18.2-14.8-33-33-33s-33 14.8-33 33 14.8 33 33 33V86z"></path>
  <rect width="352" height="33" x="80" y="128" fill="#c4c1ab" fill-rule="evenodd" clip-rule="evenodd"></rect>
  <rect width="55" height="55" x="128" y="189" fill="#1f3f77" fill-rule="evenodd" clip-rule="evenodd"></rect>
  <rect width="55" height="55" x="128" y="290" fill="#3179af" fill-rule="evenodd" clip-rule="evenodd"></rect>
  <rect width="162" height="10" x="222" y="212" fill="#323d2c"></rect>
  <rect width="162" height="10" x="222" y="312" fill="#323d2c"></rect>
  <circle cx="412.3" cy="412.3" r="94.8" fill="#db3328" fill-rule="evenodd" clip-rule="evenodd"></circle>
  <path fill="#e67368" fill-rule="evenodd" d="M334.5,428.7c0.3-51.7,42.6-94,94.2-94.2c0.4,0,0.9,0,1.3,0c9.1,0.1,10.6-13.1,1.7-15
			c-7-1.5-14.3-2.2-21.8-2c-50.3,1.2-91.2,42.1-92.4,92.4c-0.2,7.5,0.5,14.8,2,21.8c1.9,8.9,15.1,7.4,15-1.7
			C334.5,429.6,334.5,429.2,334.5,428.7z" clip-rule="evenodd"></path>
  <path fill="#b5100b" fill-rule="evenodd" d="M479,385.2c0,0.4,0,0.8,0,1.2c-1.1,50.4-42.2,91.4-92.5,92.5c-0.4,0-0.8,0-1.2,0
			c-13.1,0.1-16.3,18.6-3.9,22.8c10.1,3.5,21,5.3,32.4,5.1c50.9-0.8,92.5-42.4,93.2-93.2c0.2-11.4-1.7-22.3-5.1-32.4
			C497.6,368.9,479.1,372.1,479,385.2z" clip-rule="evenodd"></path>
  <polygon fill="#fff" points="458.2 380.7 444 366.5 412.2 398.4 379.7 365.8 365.5 380 398.1 412.5 365.5 445 379.7 459.2 412.2 426.6 444 458.5 458.2 444.3 426.3 412.5"></polygon>
</svg>
