<svg width="32" height="34" viewBox="0 0 32 34" fill="none" xmlns="http://www.w3.org/2000/svg">
<path d="M20 23.9854V27.6067C20 29.508 18.4 30.2734 16 30.2734C13.6 30.2734 12 29.508 12 27.6067V23.9854" stroke="#CAB16C" stroke-width="1.5" stroke-linecap="round" stroke-linejoin="round"/>
<path d="M17.3333 24.2733V16.2733C17.3333 15.537 17.9303 14.94 18.6667 14.94C19.403 14.94 20 15.537 20 16.2733C20 17.0097 19.403 17.6067 18.6667 17.6067H13.3333C12.597 17.6067 12 17.0097 12 16.2733C12 15.537 12.597 14.94 13.3333 14.94C13.6925 14.921 14.0428 15.0553 14.2971 15.3096C14.5513 15.5639 14.6857 15.9142 14.6667 16.2733V24.2733" stroke="#CAB16C" stroke-width="1.5" stroke-linecap="round" stroke-linejoin="round"/>
<path fill-rule="evenodd" clip-rule="evenodd" d="M19.3333 24.2734C22.6032 22.977 24.7277 19.7903 24.6666 16.2734C24.582 11.5224 20.7509 7.69136 16 7.60669C11.249 7.69136 7.41799 11.5224 7.33331 16.2734C7.27226 19.7903 9.39676 22.977 12.6666 24.2734H19.3333Z" stroke="#CAB16C" stroke-width="1.5" stroke-linecap="round" stroke-linejoin="round"/>
<path d="M12 26.9401H20" stroke="#CAB16C" stroke-width="1.5" stroke-linecap="round" stroke-linejoin="round"/>
<path d="M16 1.72668V4.27335" stroke="#CAB16C" stroke-width="1.5" stroke-linecap="round" stroke-linejoin="round"/>
<path d="M16 30.2733V32.2733" stroke="#CAB16C" stroke-width="1.5" stroke-linecap="round" stroke-linejoin="round"/>
<path d="M1.33398 14.9401H4.38865" stroke="#CAB16C" stroke-width="1.5" stroke-linecap="round" stroke-linejoin="round"/>
<path d="M4.78906 5.06006L7.3344 7.60673" stroke="#CAB16C" stroke-width="1.5" stroke-linecap="round" stroke-linejoin="round"/>
<path d="M30.6679 14.9401H27.6133" stroke="#CAB16C" stroke-width="1.5" stroke-linecap="round" stroke-linejoin="round"/>
<path d="M27.2133 5.06006L24.668 7.60673" stroke="#CAB16C" stroke-width="1.5" stroke-linecap="round" stroke-linejoin="round"/>
</svg>
