<svg width="247" height="247" viewBox="0 0 247 247" fill="none" xmlns="http://www.w3.org/2000/svg">
<path d="M222.252 196.854H205.891V196.978H222.252V196.854Z" fill="#22221B"/>
<path d="M163.621 198.198H159.328V198.321H163.621V198.198Z" fill="#22221B"/>
<path d="M205.394 192.27H195.914V192.393H205.394V192.27Z" fill="#22221B"/>
<path d="M47.2499 193.1H25.9141V193.223H47.2499V193.1Z" fill="#22221B"/>
<path d="M54.7794 193.1H51.6523V193.223H54.7794V193.1Z" fill="#22221B"/>
<path d="M111.223 195.184H64.9453V195.308H111.223V195.184Z" fill="#22221B"/>
<path d="M117.077 166.873H21.6957C20.9476 166.873 20.2302 166.576 19.7012 166.047C19.1722 165.518 18.875 164.801 18.875 164.052V29.966C18.8815 29.2222 19.1816 28.5111 19.7099 27.9874C20.2381 27.4638 20.9519 27.17 21.6957 27.17H117.077C117.825 27.17 118.543 27.4672 119.072 27.9962C119.601 28.5252 119.898 29.2426 119.898 29.9907V164.052C119.898 164.801 119.601 165.518 119.072 166.047C118.543 166.576 117.825 166.873 117.077 166.873ZM21.6957 27.2688C20.9808 27.2701 20.2955 27.5547 19.7899 28.0602C19.2844 28.5658 18.9998 29.2511 18.9985 29.966V164.052C18.9998 164.767 19.2844 165.453 19.7899 165.958C20.2955 166.464 20.9808 166.748 21.6957 166.75H117.077C117.792 166.748 118.478 166.464 118.983 165.958C119.489 165.453 119.773 164.767 119.775 164.052V29.966C119.773 29.2511 119.489 28.5658 118.983 28.0602C118.478 27.5547 117.792 27.2701 117.077 27.2688H21.6957Z" fill="#22221B"/>
<path d="M223.935 166.873H128.543C127.796 166.872 127.079 166.574 126.55 166.046C126.022 165.517 125.724 164.8 125.723 164.052V29.966C125.73 29.2226 126.031 28.5122 126.559 27.9888C127.087 27.4655 127.8 27.1713 128.543 27.17H223.935C224.677 27.1726 225.388 27.4675 225.914 27.9909C226.44 28.5143 226.739 29.2239 226.746 29.966V164.052C226.746 164.799 226.45 165.515 225.923 166.044C225.396 166.572 224.681 166.871 223.935 166.873ZM128.543 27.2688C127.828 27.2701 127.143 27.5547 126.638 28.0602C126.132 28.5658 125.847 29.2511 125.846 29.966V164.052C125.847 164.767 126.132 165.453 126.638 165.958C127.143 166.464 127.828 166.748 128.543 166.75H223.935C224.65 166.748 225.335 166.464 225.841 165.958C226.346 165.453 226.631 164.767 226.632 164.052V29.966C226.631 29.2511 226.346 28.5658 225.841 28.0602C225.335 27.5547 224.65 27.2701 223.935 27.2688H128.543Z" fill="#22221B"/>
<path d="M247 188.906H0V189.029H247V188.906Z" fill="#22221B"/>
<path d="M88.2729 47.5574H28.5977V189.202H88.2729V47.5574Z" fill="#22221B"/>
<path d="M85.7346 50.1262H31.1328V189.207H85.7346V50.1262Z" fill="#22221B"/>
<path d="M57.1548 68.4733H35.2656V119.41H57.1548V68.4733Z" fill="#48483C"/>
<path d="M81.897 68.4733H60.0078V119.41H81.897V68.4733Z" fill="#48483C"/>
<path d="M81.8943 134.813H35.2656V185.749H81.8943V134.813Z" fill="#22221B"/>
<path d="M43.8019 53.8163H73.358C75.6219 53.8163 77.7932 54.7157 79.3941 56.3166C80.9949 57.9174 81.8943 60.0887 81.8943 62.3527V65.8354H35.2656V62.3527C35.2656 61.2317 35.4864 60.1216 35.9154 59.086C36.3444 58.0503 36.9732 57.1092 37.7659 56.3166C38.5585 55.5239 39.4996 54.8951 40.5352 54.4661C41.5709 54.0371 42.6809 53.8163 43.8019 53.8163Z" fill="#48483C"/>
<path d="M39.2473 121.702H35.2656V132.076H39.2473V121.702Z" fill="#49493B"/>
<path d="M39.2468 132.076H40.0273V121.702H39.2468V132.076Z" fill="#48483C"/>
<path d="M37.9295 125.777C37.9295 126.11 37.831 126.434 37.6464 126.71C37.4619 126.987 37.1996 127.202 36.8927 127.329C36.5858 127.456 36.2481 127.489 35.9222 127.425C35.5964 127.36 35.2972 127.2 35.0623 126.965C34.8274 126.73 34.6674 126.431 34.6026 126.105C34.5378 125.779 34.571 125.441 34.6982 125.135C34.8253 124.828 35.0406 124.565 35.3168 124.381C35.593 124.196 35.9177 124.098 36.2499 124.098C36.6954 124.098 37.1226 124.275 37.4376 124.59C37.7526 124.905 37.9295 125.332 37.9295 125.777Z" fill="#48483C"/>
<path d="M37.6067 128.677H36.7422V130.777H37.6067V128.677Z" fill="#48483C"/>
<path d="M34.7723 128.124C36.0682 128.124 37.1188 127.073 37.1188 125.777C37.1188 124.481 36.0682 123.431 34.7723 123.431C33.4763 123.431 32.4258 124.481 32.4258 125.777C32.4258 127.073 33.4763 128.124 34.7723 128.124Z" fill="#22221B"/>
<path d="M146.426 50.0867H128.113V73.8728H146.426V50.0867Z" fill="#22221B"/>
<path d="M145.015 51.9145H129.523V72.045H145.015V51.9145Z" fill="#22221B"/>
<path d="M144.044 53.1742H130.488V70.7853H144.044V53.1742Z" fill="#48483C"/>
<path d="M163.328 77.0689H145.016V92.6744H163.328V77.0689Z" fill="#22221B"/>
<path d="M161.918 78.2693H146.426V91.474H161.918V78.2693Z" fill="#22221B"/>
<path d="M160.95 79.0943H147.395V90.649H160.95V79.0943Z" fill="#48483C"/>
<path d="M165.941 72.5291V59.937H149.58V72.5291H165.941Z" fill="#49493B"/>
<path d="M164.684 71.5609V60.9053H150.842V71.5609H164.684Z" fill="#686857"/>
<path d="M163.816 70.894V61.5722H151.708V70.894H163.816Z" fill="#22221B"/>
<path d="M213.992 180.942C213.992 184.282 214.516 186.445 215.395 187.829C215.733 188.337 216.194 188.753 216.734 189.037C217.274 189.322 217.877 189.467 218.488 189.459H223.324C223.935 189.468 224.538 189.323 225.078 189.039C225.619 188.754 226.079 188.338 226.416 187.829C227.301 186.445 227.824 184.282 227.824 180.942C227.824 176.101 225.71 172.223 225.023 169.126C224.771 168.009 225.601 164.591 225.601 164.591H216.215C216.215 164.591 217.04 168.009 216.793 169.126C216.102 172.223 213.992 176.101 213.992 180.942Z" fill="#49493B"/>
<path d="M198.004 161.34C198.004 157.136 204.599 158.87 206.259 152.355C206.891 149.885 201.526 144.288 201.526 144.288H218.248C218.248 144.288 212.883 149.885 213.516 152.355C215.175 158.88 221.77 157.136 221.77 161.34C221.77 165.974 212.468 175.617 212.019 186.475C211.979 187.463 213.767 189.439 213.767 189.439H205.997C205.997 189.439 207.785 187.429 207.746 186.475C207.306 175.617 198.004 165.984 198.004 161.34Z" fill="#686857"/>
<path d="M203.059 172.268C202.071 170.227 204.097 163.277 204.097 163.277H196.85C196.85 163.277 198.86 170.227 197.887 172.268C197.206 173.71 195.645 174.634 195.645 176.343V186.604C195.645 189.261 197.818 189.459 200.476 189.459C203.134 189.459 205.307 189.261 205.307 186.604V176.358C205.307 174.634 203.746 173.71 203.059 172.268Z" fill="#49493B"/>
<path d="M121.118 209.313C174.016 209.313 216.899 206.809 216.899 203.721C216.899 200.632 174.016 198.129 121.118 198.129C68.2188 198.129 25.3359 200.632 25.3359 203.721C25.3359 206.809 68.2188 209.313 121.118 209.313Z" fill="#22221B"/>
<path d="M146.671 186.732L135.852 162.748H110.559L114.442 185.191C114.492 185.48 114.479 185.777 114.403 186.06C114.327 186.344 114.19 186.608 114.002 186.833C113.815 187.059 113.58 187.241 113.314 187.367C113.049 187.492 112.76 187.559 112.466 187.562H101.361C101.077 187.562 100.804 187.675 100.603 187.876C100.402 188.077 100.289 188.35 100.289 188.634V189.829C100.289 190.114 100.402 190.386 100.603 190.587C100.804 190.788 101.077 190.901 101.361 190.901H145.89C146.199 190.901 146.496 190.779 146.715 190.56C146.933 190.341 147.056 190.045 147.056 189.735V188.496C147.053 187.887 146.921 187.286 146.671 186.732ZM134.958 183.768H122.815C122.432 183.769 122.061 183.634 121.768 183.387C121.475 183.14 121.279 182.797 121.215 182.419L119.382 171.833C119.342 171.599 119.353 171.359 119.415 171.131C119.477 170.902 119.589 170.689 119.742 170.508C119.895 170.327 120.086 170.181 120.301 170.081C120.516 169.982 120.75 169.93 120.988 169.931H130.171C130.484 169.931 130.789 170.021 131.052 170.19C131.315 170.359 131.523 170.6 131.653 170.884L136.44 181.471C136.551 181.719 136.599 181.99 136.578 182.261C136.557 182.532 136.47 182.793 136.322 183.022C136.175 183.25 135.973 183.438 135.735 183.568C135.497 183.698 135.23 183.767 134.958 183.768Z" fill="#CAB16C"/>
<path opacity="0.2" d="M146.671 186.732L135.852 162.748H110.559L114.442 185.191C114.492 185.48 114.479 185.777 114.403 186.06C114.327 186.344 114.19 186.608 114.002 186.833C113.815 187.059 113.58 187.241 113.314 187.367C113.049 187.492 112.76 187.559 112.466 187.562H101.361C101.077 187.562 100.804 187.675 100.603 187.876C100.402 188.077 100.289 188.35 100.289 188.634V189.829C100.289 190.114 100.402 190.386 100.603 190.587C100.804 190.788 101.077 190.901 101.361 190.901H145.89C146.199 190.901 146.496 190.779 146.715 190.56C146.933 190.341 147.056 190.045 147.056 189.735V188.496C147.053 187.887 146.921 187.286 146.671 186.732ZM134.958 183.768H122.815C122.432 183.769 122.061 183.634 121.768 183.387C121.475 183.14 121.279 182.797 121.215 182.419L119.382 171.833C119.342 171.599 119.353 171.359 119.415 171.131C119.477 170.902 119.589 170.689 119.742 170.508C119.895 170.327 120.086 170.181 120.301 170.081C120.516 169.982 120.75 169.93 120.988 169.931H130.171C130.484 169.931 130.789 170.021 131.052 170.19C131.315 170.359 131.523 170.6 131.653 170.884L136.44 181.471C136.551 181.719 136.599 181.99 136.578 182.261C136.557 182.532 136.47 182.793 136.322 183.022C136.175 183.25 135.973 183.438 135.735 183.568C135.497 183.698 135.23 183.767 134.958 183.768Z" fill="#FFFEFA"/>
<path d="M122.416 169.906H120.989C120.751 169.906 120.517 169.957 120.302 170.057C120.087 170.156 119.896 170.302 119.743 170.483C119.59 170.664 119.478 170.877 119.416 171.106C119.354 171.335 119.343 171.575 119.383 171.808L121.216 182.395C121.28 182.772 121.476 183.115 121.769 183.362C122.062 183.609 122.433 183.744 122.816 183.743H124.249C123.866 183.744 123.495 183.609 123.202 183.362C122.909 183.115 122.713 182.772 122.648 182.395L120.816 171.808C120.775 171.575 120.787 171.336 120.848 171.107C120.91 170.879 121.021 170.666 121.174 170.485C121.326 170.304 121.516 170.158 121.731 170.058C121.946 169.958 122.179 169.906 122.416 169.906Z" fill="#CAB16C"/>
<path d="M148.103 186.732L137.274 162.768H135.852L146.67 186.732C146.924 187.292 147.055 187.9 147.055 188.515V189.755C147.055 189.908 147.025 190.06 146.967 190.201C146.908 190.343 146.822 190.471 146.714 190.58C146.606 190.688 146.477 190.774 146.336 190.832C146.194 190.891 146.043 190.921 145.89 190.921H147.322C147.475 190.921 147.627 190.891 147.768 190.832C147.91 190.774 148.038 190.688 148.147 190.58C148.255 190.471 148.341 190.343 148.399 190.201C148.458 190.06 148.488 189.908 148.488 189.755V188.515C148.488 187.9 148.356 187.292 148.103 186.732Z" fill="#CAB16C"/>
<g opacity="0.2">
<path d="M122.416 169.906H120.989C120.751 169.906 120.517 169.957 120.302 170.057C120.087 170.156 119.896 170.302 119.743 170.483C119.59 170.664 119.478 170.877 119.416 171.106C119.354 171.335 119.343 171.575 119.383 171.808L121.216 182.395C121.28 182.772 121.476 183.115 121.769 183.362C122.062 183.609 122.433 183.744 122.816 183.743H124.249C123.866 183.744 123.495 183.609 123.202 183.362C122.909 183.115 122.713 182.772 122.648 182.395L120.816 171.808C120.775 171.575 120.787 171.336 120.848 171.107C120.91 170.879 121.021 170.666 121.174 170.485C121.326 170.304 121.516 170.158 121.731 170.058C121.946 169.958 122.179 169.906 122.416 169.906Z" fill="black"/>
<path d="M148.103 186.732L137.274 162.768H135.852L146.67 186.732C146.924 187.292 147.055 187.9 147.055 188.515V189.755C147.055 189.908 147.025 190.06 146.967 190.201C146.908 190.343 146.822 190.471 146.714 190.58C146.606 190.688 146.477 190.774 146.336 190.832C146.194 190.891 146.043 190.921 145.89 190.921H147.322C147.475 190.921 147.627 190.891 147.768 190.832C147.91 190.774 148.038 190.688 148.147 190.58C148.255 190.471 148.341 190.343 148.399 190.201C148.458 190.06 148.488 189.908 148.488 189.755V188.515C148.488 187.9 148.356 187.292 148.103 186.732Z" fill="black"/>
</g>
<path opacity="0.2" d="M135.844 162.748H110.551L111.544 168.474H138.432L135.844 162.748Z" fill="black"/>
<path d="M172.125 165.263H64.2206C63.7147 165.272 63.2127 165.174 62.7481 164.974C62.2835 164.773 61.8669 164.476 61.5264 164.102C61.1859 163.728 60.9293 163.285 60.7737 162.804C60.6181 162.323 60.5672 161.813 60.6242 161.311L67.4414 83.3378C67.549 82.2677 68.0454 81.2742 68.8367 80.5458C69.6279 79.8174 70.659 79.4046 71.7343 79.3858H179.639C180.145 79.3762 180.647 79.4748 181.111 79.675C181.576 79.8752 181.992 80.1723 182.333 80.5465C182.673 80.9207 182.93 81.3633 183.086 81.8446C183.241 82.326 183.292 82.8351 183.235 83.3378L176.413 161.316C176.305 162.384 175.809 163.377 175.019 164.104C174.229 164.832 173.199 165.244 172.125 165.263Z" fill="#CAB16C"/>
<path opacity="0.5" d="M172.125 165.263H64.2206C63.7147 165.272 63.2127 165.174 62.7481 164.974C62.2835 164.773 61.8669 164.476 61.5264 164.102C61.1859 163.728 60.9293 163.285 60.7737 162.804C60.6181 162.323 60.5672 161.813 60.6242 161.311L67.4414 83.3378C67.549 82.2677 68.0454 81.2742 68.8367 80.5458C69.6279 79.8174 70.659 79.4046 71.7343 79.3858H179.639C180.145 79.3762 180.647 79.4748 181.111 79.675C181.576 79.8752 181.992 80.1723 182.333 80.5465C182.673 80.9207 182.93 81.3633 183.086 81.8446C183.241 82.326 183.292 82.8351 183.235 83.3378L176.413 161.316C176.305 162.384 175.809 163.377 175.019 164.104C174.229 164.832 173.199 165.244 172.125 165.263Z" fill="#FFFEFA"/>
<path d="M61.3564 152.888L60.6203 161.316C60.5633 161.818 60.6142 162.327 60.7698 162.809C60.9254 163.29 61.182 163.733 61.5225 164.107C61.863 164.481 62.2796 164.778 62.7442 164.978C63.2088 165.179 63.7108 165.277 64.2167 165.268H172.126C173.201 165.249 174.231 164.836 175.022 164.107C175.812 163.379 176.308 162.385 176.414 161.316L177.155 152.888H61.3564Z" fill="#CAB16C"/>
<path opacity="0.7" d="M61.3564 152.888L60.6203 161.316C60.5633 161.818 60.6142 162.327 60.7698 162.809C60.9254 163.29 61.182 163.733 61.5225 164.107C61.863 164.481 62.2796 164.778 62.7442 164.978C63.2088 165.179 63.7108 165.277 64.2167 165.268H172.126C173.201 165.249 174.231 164.836 175.022 164.107C175.812 163.379 176.308 162.385 176.414 161.316L177.155 152.888H61.3564Z" fill="#FFFEFA"/>
<path d="M173.346 150.502H65.5803C65.3063 150.507 65.0344 150.454 64.7826 150.346C64.5309 150.237 64.3051 150.077 64.1205 149.874C63.9358 149.672 63.7964 149.432 63.7116 149.172C63.6269 148.911 63.5987 148.635 63.629 148.363L69.2655 83.9207C69.3246 83.3413 69.5941 82.8037 70.0228 82.4095C70.4516 82.0153 71.0099 81.792 71.5922 81.7817H179.358C179.632 81.7765 179.904 81.8298 180.156 81.9381C180.408 82.0463 180.633 82.2071 180.818 82.4095C181.003 82.612 181.142 82.8515 181.227 83.1121C181.312 83.3727 181.34 83.6484 181.31 83.9207L175.673 148.363C175.614 148.942 175.345 149.48 174.916 149.874C174.487 150.268 173.929 150.492 173.346 150.502Z" fill="#CAB16C"/>
<path opacity="0.8" d="M173.346 150.502H65.5803C65.3063 150.507 65.0344 150.454 64.7826 150.346C64.5309 150.237 64.3051 150.077 64.1205 149.874C63.9358 149.672 63.7964 149.432 63.7116 149.172C63.6269 148.911 63.5987 148.635 63.629 148.363L69.2655 83.9207C69.3246 83.3413 69.5941 82.8037 70.0228 82.4095C70.4516 82.0153 71.0099 81.792 71.5922 81.7817H179.358C179.632 81.7765 179.904 81.8298 180.156 81.9381C180.408 82.0463 180.633 82.2071 180.818 82.4095C181.003 82.612 181.142 82.8515 181.227 83.1121C181.312 83.3727 181.34 83.6484 181.31 83.9207L175.673 148.363C175.614 148.942 175.345 149.48 174.916 149.874C174.487 150.268 173.929 150.492 173.346 150.502Z" fill="#FFFEFA"/>
<path d="M182.025 79.4006H179.639C180.145 79.391 180.647 79.4896 181.111 79.6898C181.576 79.89 181.992 80.1871 182.333 80.5613C182.673 80.9355 182.93 81.3781 183.086 81.8594C183.241 82.3408 183.292 82.8499 183.235 83.3526L176.413 161.316C176.307 162.385 175.811 163.379 175.021 164.107C174.23 164.836 173.2 165.249 172.125 165.268H174.511C175.586 165.249 176.616 164.836 177.407 164.107C178.197 163.379 178.693 162.385 178.799 161.316L185.621 83.3427C185.677 82.8408 185.625 82.3328 185.468 81.8526C185.312 81.3724 185.055 80.9311 184.715 80.558C184.374 80.185 183.958 79.8888 183.495 79.6892C183.031 79.4896 182.53 79.3912 182.025 79.4006Z" fill="#CAB16C"/>
<path opacity="0.2" d="M182.025 79.4006H179.639C180.145 79.391 180.647 79.4896 181.111 79.6898C181.576 79.89 181.992 80.1871 182.333 80.5613C182.673 80.9355 182.93 81.3781 183.086 81.8594C183.241 82.3408 183.292 82.8499 183.235 83.3526L176.413 161.316C176.307 162.385 175.811 163.379 175.021 164.107C174.23 164.836 173.2 165.249 172.125 165.268H174.511C175.586 165.249 176.616 164.836 177.407 164.107C178.197 163.379 178.693 162.385 178.799 161.316L185.621 83.3427C185.677 82.8408 185.625 82.3328 185.468 81.8526C185.312 81.3724 185.055 80.9311 184.715 80.558C184.374 80.185 183.958 79.8888 183.495 79.6892C183.031 79.4896 182.53 79.3912 182.025 79.4006Z" fill="#FFFEFA"/>
<path d="M116.966 120.976C117.022 120.318 117.033 119.658 117.001 119L119.599 117.621C119.515 116.842 119.376 116.07 119.184 115.309L116.349 115.359C115.957 114.139 115.389 112.982 114.664 111.926L116.329 109.495C115.857 108.892 115.34 108.326 114.783 107.801L112.229 109.258C111.243 108.445 110.145 107.78 108.968 107.282L109.265 104.451C108.528 104.191 107.774 103.985 107.007 103.834L105.412 106.304C104.757 106.214 104.097 106.169 103.436 106.17C102.775 106.171 102.115 106.215 101.46 106.304L100.299 103.834C99.497 103.987 98.7065 104.193 97.9324 104.451L97.7299 107.282C96.4508 107.789 95.2395 108.453 94.1237 109.258L91.8217 107.801C91.1737 108.328 90.5584 108.894 89.979 109.495L91.2239 111.926C90.3214 112.97 89.553 114.124 88.9367 115.359L86.111 115.309C85.7879 116.062 85.5139 116.834 85.291 117.621L87.6474 119C87.5011 119.651 87.3971 120.311 87.3361 120.976C87.2792 121.633 87.266 122.293 87.2966 122.952L84.7031 124.325C84.7843 125.105 84.923 125.878 85.1181 126.637L87.9536 126.592C88.3435 127.821 88.911 128.986 89.6382 130.05L87.9685 132.476C88.4423 133.079 88.9608 133.645 89.5196 134.17L92.0736 132.718C93.0576 133.53 94.1542 134.196 95.3291 134.694L95.0376 137.525C95.7742 137.785 96.5287 137.991 97.2952 138.142L98.8908 135.672C99.5458 135.76 100.206 135.805 100.867 135.806C101.528 135.803 102.188 135.758 102.843 135.672L104.004 138.142C104.805 137.989 105.596 137.783 106.37 137.525L106.573 134.694C107.851 134.186 109.062 133.522 110.179 132.718L112.476 134.17C113.126 133.646 113.742 133.08 114.318 132.476L113.078 130.05C113.983 128.998 114.751 127.836 115.366 126.592L118.191 126.637C118.516 125.885 118.79 125.113 119.011 124.325L116.655 122.952C116.801 122.3 116.905 121.64 116.966 120.976ZM101.707 126.014C101.061 126.027 100.42 125.901 99.8271 125.646C99.2339 125.391 98.7019 125.013 98.2666 124.536C97.8313 124.059 97.5028 123.495 97.3029 122.881C97.103 122.267 97.0364 121.617 97.1075 120.976C97.2473 119.611 97.8817 118.346 98.8911 117.417C99.9005 116.489 101.215 115.962 102.586 115.937C103.231 115.925 103.872 116.051 104.464 116.307C105.057 116.562 105.589 116.94 106.024 117.417C106.459 117.894 106.788 118.458 106.988 119.071C107.188 119.685 107.255 120.334 107.185 120.976C107.046 122.34 106.412 123.607 105.403 124.535C104.393 125.464 103.078 125.99 101.707 126.014Z" fill="#CAB16C"/>
<path opacity="0.4" d="M116.966 120.976C117.022 120.318 117.033 119.658 117.001 119L119.599 117.621C119.515 116.842 119.376 116.07 119.184 115.309L116.349 115.359C115.957 114.139 115.389 112.982 114.664 111.926L116.329 109.495C115.857 108.892 115.34 108.326 114.783 107.801L112.229 109.258C111.243 108.445 110.145 107.78 108.968 107.282L109.265 104.451C108.528 104.191 107.774 103.985 107.007 103.834L105.412 106.304C104.757 106.214 104.097 106.169 103.436 106.17C102.775 106.171 102.115 106.215 101.46 106.304L100.299 103.834C99.497 103.987 98.7065 104.193 97.9324 104.451L97.7299 107.282C96.4508 107.789 95.2395 108.453 94.1237 109.258L91.8217 107.801C91.1737 108.328 90.5584 108.894 89.979 109.495L91.2239 111.926C90.3214 112.97 89.553 114.124 88.9367 115.359L86.111 115.309C85.7879 116.062 85.5139 116.834 85.291 117.621L87.6474 119C87.5011 119.651 87.3971 120.311 87.3361 120.976C87.2792 121.633 87.266 122.293 87.2966 122.952L84.7031 124.325C84.7843 125.105 84.923 125.878 85.1181 126.637L87.9536 126.592C88.3435 127.821 88.911 128.986 89.6382 130.05L87.9685 132.476C88.4423 133.079 88.9608 133.645 89.5196 134.17L92.0736 132.718C93.0576 133.53 94.1542 134.196 95.3291 134.694L95.0376 137.525C95.7742 137.785 96.5287 137.991 97.2952 138.142L98.8908 135.672C99.5458 135.76 100.206 135.805 100.867 135.806C101.528 135.803 102.188 135.758 102.843 135.672L104.004 138.142C104.805 137.989 105.596 137.783 106.37 137.525L106.573 134.694C107.851 134.186 109.062 133.522 110.179 132.718L112.476 134.17C113.126 133.646 113.742 133.08 114.318 132.476L113.078 130.05C113.983 128.998 114.751 127.836 115.366 126.592L118.191 126.637C118.516 125.885 118.79 125.113 119.011 124.325L116.655 122.952C116.801 122.3 116.905 121.64 116.966 120.976ZM101.707 126.014C101.061 126.027 100.42 125.901 99.8271 125.646C99.2339 125.391 98.7019 125.013 98.2666 124.536C97.8313 124.059 97.5028 123.495 97.3029 122.881C97.103 122.267 97.0364 121.617 97.1075 120.976C97.2473 119.611 97.8817 118.346 98.8911 117.417C99.9005 116.489 101.215 115.962 102.586 115.937C103.231 115.925 103.872 116.051 104.464 116.307C105.057 116.562 105.589 116.94 106.024 117.417C106.459 117.894 106.788 118.458 106.988 119.071C107.188 119.685 107.255 120.334 107.185 120.976C107.046 122.34 106.412 123.607 105.403 124.535C104.393 125.464 103.078 125.99 101.707 126.014Z" fill="#FFFEFA"/>
<path d="M157.405 105.222C157.448 104.729 157.464 104.235 157.455 103.74L161.772 101.453C161.692 100.816 161.579 100.185 161.431 99.5607L156.714 99.6398C156.39 98.7211 155.959 97.8439 155.429 97.0265L158.206 92.9856C157.81 92.5012 157.388 92.0395 156.941 91.6024L152.693 94.023C151.93 93.4252 151.102 92.918 150.223 92.5114L150.717 87.8035C150.11 87.6048 149.493 87.4399 148.869 87.3095L146.226 91.39C145.734 91.3351 145.239 91.3071 144.744 91.306C144.237 91.3066 143.731 91.3347 143.227 91.39L141.301 87.275C140.649 87.4065 140.004 87.5714 139.369 87.769L139.033 92.4768C138.07 92.8873 137.149 93.3938 136.287 93.9884L132.458 91.5678C131.935 92.0075 131.436 92.4669 130.976 92.951L133.041 96.9919C132.377 97.804 131.795 98.6793 131.302 99.6052L126.599 99.5262C126.347 100.144 126.105 100.771 125.928 101.418L129.845 103.705C129.75 104.196 129.679 104.69 129.633 105.187C129.589 105.69 129.573 106.195 129.583 106.699L125.266 108.986C125.343 109.621 125.457 110.251 125.606 110.873L130.319 110.799C130.645 111.717 131.076 112.594 131.604 113.413L128.827 117.448C129.223 117.934 129.645 118.398 130.092 118.837L134.34 116.411C135.101 117.01 135.931 117.518 136.81 117.923L136.316 122.631C136.92 122.832 137.536 122.997 138.159 123.125L140.792 119.054C141.284 119.109 141.779 119.137 142.274 119.138C142.781 119.137 143.287 119.109 143.791 119.054L145.722 123.174C146.374 123.044 147.019 122.879 147.654 122.68L147.99 117.972C148.954 117.562 149.874 117.056 150.736 116.46L154.56 118.886C155.083 118.446 155.587 117.987 156.067 117.498L153.997 113.462C154.664 112.652 155.246 111.777 155.736 110.849L160.438 110.923C160.695 110.306 160.92 109.676 161.11 109.036L157.193 106.748C157.292 106.244 157.363 105.734 157.405 105.222ZM142.971 111.15C142.213 111.164 141.46 111.016 140.764 110.716C140.068 110.415 139.444 109.969 138.935 109.408C138.425 108.846 138.042 108.182 137.81 107.46C137.578 106.738 137.503 105.975 137.591 105.222C137.754 103.623 138.498 102.14 139.681 101.053C140.865 99.9656 142.406 99.3504 144.013 99.3236C144.768 99.3114 145.516 99.4599 146.209 99.7593C146.902 100.059 147.523 100.502 148.031 101.06C148.54 101.618 148.924 102.277 149.157 102.995C149.391 103.713 149.47 104.472 149.388 105.222C149.232 106.825 148.491 108.315 147.308 109.408C146.125 110.501 144.581 111.121 142.971 111.15Z" fill="#CAB16C"/>
<path opacity="0.3" d="M157.405 105.222C157.448 104.729 157.464 104.235 157.455 103.74L161.772 101.453C161.692 100.816 161.579 100.185 161.431 99.5607L156.714 99.6398C156.39 98.7211 155.959 97.8439 155.429 97.0265L158.206 92.9856C157.81 92.5012 157.388 92.0395 156.941 91.6024L152.693 94.023C151.93 93.4252 151.102 92.918 150.223 92.5114L150.717 87.8035C150.11 87.6048 149.493 87.4399 148.869 87.3095L146.226 91.39C145.734 91.3351 145.239 91.3071 144.744 91.306C144.237 91.3066 143.731 91.3347 143.227 91.39L141.301 87.275C140.649 87.4065 140.004 87.5714 139.369 87.769L139.033 92.4768C138.07 92.8873 137.149 93.3938 136.287 93.9884L132.458 91.5678C131.935 92.0075 131.436 92.4669 130.976 92.951L133.041 96.9919C132.377 97.804 131.795 98.6793 131.302 99.6052L126.599 99.5262C126.347 100.144 126.105 100.771 125.928 101.418L129.845 103.705C129.75 104.196 129.679 104.69 129.633 105.187C129.589 105.69 129.573 106.195 129.583 106.699L125.266 108.986C125.343 109.621 125.457 110.251 125.606 110.873L130.319 110.799C130.645 111.717 131.076 112.594 131.604 113.413L128.827 117.448C129.223 117.934 129.645 118.398 130.092 118.837L134.34 116.411C135.101 117.01 135.931 117.518 136.81 117.923L136.316 122.631C136.92 122.832 137.536 122.997 138.159 123.125L140.792 119.054C141.284 119.109 141.779 119.137 142.274 119.138C142.781 119.137 143.287 119.109 143.791 119.054L145.722 123.174C146.374 123.044 147.019 122.879 147.654 122.68L147.99 117.972C148.954 117.562 149.874 117.056 150.736 116.46L154.56 118.886C155.083 118.446 155.587 117.987 156.067 117.498L153.997 113.462C154.664 112.652 155.246 111.777 155.736 110.849L160.438 110.923C160.695 110.306 160.92 109.676 161.11 109.036L157.193 106.748C157.292 106.244 157.363 105.734 157.405 105.222ZM142.971 111.15C142.213 111.164 141.46 111.016 140.764 110.716C140.068 110.415 139.444 109.969 138.935 109.408C138.425 108.846 138.042 108.182 137.81 107.46C137.578 106.738 137.503 105.975 137.591 105.222C137.754 103.623 138.498 102.14 139.681 101.053C140.865 99.9656 142.406 99.3504 144.013 99.3236C144.768 99.3114 145.516 99.4599 146.209 99.7593C146.902 100.059 147.523 100.502 148.031 101.06C148.54 101.618 148.924 102.277 149.157 102.995C149.391 103.713 149.47 104.472 149.388 105.222C149.232 106.825 148.491 108.315 147.308 109.408C146.125 110.501 144.581 111.121 142.971 111.15Z" fill="#FFFEFA"/>
<path d="M137.926 133.069C137.954 132.74 137.966 132.41 137.961 132.081L140.831 130.559C140.777 130.134 140.698 129.715 140.604 129.304L137.472 129.359C137.253 128.749 136.966 128.166 136.617 127.62L138.46 124.938C138.198 124.615 137.918 124.308 137.62 124.019L134.799 125.624C134.289 125.233 133.735 124.902 133.149 124.636L133.475 121.509C133.074 121.374 132.665 121.262 132.25 121.173L130.491 123.91C130.163 123.872 129.834 123.854 129.503 123.856C129.173 123.855 128.843 123.873 128.515 123.91L127.236 121.173C126.802 121.263 126.374 121.375 125.952 121.509L125.729 124.636C125.089 124.905 124.477 125.236 123.902 125.624L121.333 123.994C120.982 124.285 120.651 124.592 120.345 124.913L121.718 127.595C121.278 128.135 120.892 128.718 120.567 129.334L117.44 129.28C117.272 129.69 117.124 130.11 116.995 130.535L119.599 132.056C119.534 132.383 119.486 132.712 119.456 133.044C119.427 133.373 119.416 133.702 119.421 134.032L116.551 135.549C116.605 135.97 116.681 136.389 116.778 136.803L119.915 136.754C120.13 137.365 120.415 137.948 120.765 138.493L118.922 141.175C119.185 141.497 119.465 141.803 119.762 142.094L122.583 140.484C123.092 140.876 123.646 141.208 124.232 141.472L123.906 144.604C124.307 144.732 124.712 144.846 125.132 144.94L126.89 142.203C127.218 142.238 127.548 142.256 127.878 142.257C128.208 142.256 128.538 142.238 128.866 142.203L130.151 144.94C130.585 144.846 131.01 144.732 131.435 144.604L131.652 141.472C132.293 141.205 132.906 140.874 133.48 140.484L136.019 142.094C136.37 141.803 136.701 141.496 137.007 141.175L135.634 138.493C136.076 137.953 136.463 137.371 136.79 136.754L139.912 136.803C140.084 136.394 140.232 135.975 140.357 135.549L137.753 134.032C137.827 133.714 137.885 133.393 137.926 133.069ZM128.204 138.532C127.505 138.543 126.812 138.404 126.171 138.127C125.529 137.849 124.954 137.439 124.482 136.922C124.011 136.406 123.655 135.795 123.437 135.131C123.22 134.467 123.146 133.764 123.22 133.069C123.371 131.592 124.058 130.221 125.149 129.215C126.241 128.208 127.663 127.636 129.148 127.605C129.847 127.595 130.54 127.733 131.182 128.011C131.823 128.288 132.398 128.699 132.87 129.215C133.341 129.732 133.697 130.342 133.915 131.006C134.132 131.671 134.206 132.374 134.132 133.069C133.981 134.546 133.294 135.917 132.203 136.923C131.111 137.929 129.689 138.502 128.204 138.532Z" fill="#CAB16C"/>
<path opacity="0.5" d="M137.926 133.069C137.954 132.74 137.966 132.41 137.961 132.081L140.831 130.559C140.777 130.134 140.698 129.715 140.604 129.304L137.472 129.359C137.253 128.749 136.966 128.166 136.617 127.62L138.46 124.938C138.198 124.615 137.918 124.308 137.62 124.019L134.799 125.624C134.289 125.233 133.735 124.902 133.149 124.636L133.475 121.509C133.074 121.374 132.665 121.262 132.25 121.173L130.491 123.91C130.163 123.872 129.834 123.854 129.503 123.856C129.173 123.855 128.843 123.873 128.515 123.91L127.236 121.173C126.802 121.263 126.374 121.375 125.952 121.509L125.729 124.636C125.089 124.905 124.477 125.236 123.902 125.624L121.333 123.994C120.982 124.285 120.651 124.592 120.345 124.913L121.718 127.595C121.278 128.135 120.892 128.718 120.567 129.334L117.44 129.28C117.272 129.69 117.124 130.11 116.995 130.535L119.599 132.056C119.534 132.383 119.486 132.712 119.456 133.044C119.427 133.373 119.416 133.702 119.421 134.032L116.551 135.549C116.605 135.97 116.681 136.389 116.778 136.803L119.915 136.754C120.13 137.365 120.415 137.948 120.765 138.493L118.922 141.175C119.185 141.497 119.465 141.803 119.762 142.094L122.583 140.484C123.092 140.876 123.646 141.208 124.232 141.472L123.906 144.604C124.307 144.732 124.712 144.846 125.132 144.94L126.89 142.203C127.218 142.238 127.548 142.256 127.878 142.257C128.208 142.256 128.538 142.238 128.866 142.203L130.151 144.94C130.585 144.846 131.01 144.732 131.435 144.604L131.652 141.472C132.293 141.205 132.906 140.874 133.48 140.484L136.019 142.094C136.37 141.803 136.701 141.496 137.007 141.175L135.634 138.493C136.076 137.953 136.463 137.371 136.79 136.754L139.912 136.803C140.084 136.394 140.232 135.975 140.357 135.549L137.753 134.032C137.827 133.714 137.885 133.393 137.926 133.069ZM128.204 138.532C127.505 138.543 126.812 138.404 126.171 138.127C125.529 137.849 124.954 137.439 124.482 136.922C124.011 136.406 123.655 135.795 123.437 135.131C123.22 134.467 123.146 133.764 123.22 133.069C123.371 131.592 124.058 130.221 125.149 129.215C126.241 128.208 127.663 127.636 129.148 127.605C129.847 127.595 130.54 127.733 131.182 128.011C131.823 128.288 132.398 128.699 132.87 129.215C133.341 129.732 133.697 130.342 133.915 131.006C134.132 131.671 134.206 132.374 134.132 133.069C133.981 134.546 133.294 135.917 132.203 136.923C131.111 137.929 129.689 138.502 128.204 138.532Z" fill="#FFFEFA"/>
<path d="M117.411 93.939C117.308 95.0074 116.815 96.0007 116.027 96.7295C115.239 97.4583 114.211 97.8717 113.138 97.891C112.632 97.9008 112.131 97.8022 111.666 97.6019C111.202 97.4017 110.786 97.1044 110.446 96.73C110.107 96.3556 109.851 95.9129 109.697 95.4315C109.542 94.95 109.493 94.4412 109.551 93.939C109.654 92.8706 110.147 91.8774 110.935 91.1486C111.723 90.4198 112.751 90.0063 113.824 89.987C114.33 89.9773 114.831 90.0758 115.296 90.2761C115.76 90.4763 116.176 90.7736 116.516 91.148C116.855 91.5224 117.111 91.9652 117.265 92.4466C117.42 92.928 117.469 93.4369 117.411 93.939Z" fill="#CAB16C"/>
<path opacity="0.4" d="M117.411 93.939C117.308 95.0074 116.815 96.0007 116.027 96.7295C115.239 97.4583 114.211 97.8717 113.138 97.891C112.632 97.9008 112.131 97.8022 111.666 97.6019C111.202 97.4017 110.786 97.1044 110.446 96.73C110.107 96.3556 109.851 95.9129 109.697 95.4315C109.542 94.95 109.493 94.4412 109.551 93.939C109.654 92.8706 110.147 91.8774 110.935 91.1486C111.723 90.4198 112.751 90.0063 113.824 89.987C114.33 89.9773 114.831 90.0758 115.296 90.2761C115.76 90.4763 116.176 90.7736 116.516 91.148C116.855 91.5224 117.111 91.9652 117.265 92.4466C117.42 92.928 117.469 93.4369 117.411 93.939Z" fill="#FFFEFA"/>
<path d="M155.044 141.067C154.939 142.135 154.445 143.128 153.657 143.856C152.868 144.585 151.839 144.998 150.766 145.019C150.261 145.028 149.759 144.928 149.296 144.728C148.832 144.527 148.416 144.23 148.077 143.856C147.737 143.482 147.481 143.039 147.327 142.558C147.172 142.077 147.122 141.569 147.18 141.067C147.282 139.998 147.775 139.005 148.563 138.276C149.351 137.547 150.379 137.134 151.453 137.115C151.958 137.105 152.46 137.204 152.925 137.404C153.389 137.604 153.805 137.901 154.145 138.275C154.485 138.65 154.742 139.092 154.897 139.574C155.052 140.055 155.102 140.564 155.044 141.067Z" fill="#CAB16C"/>
<path opacity="0.7" d="M155.044 141.067C154.939 142.135 154.445 143.128 153.657 143.856C152.868 144.585 151.839 144.998 150.766 145.019C150.261 145.028 149.759 144.928 149.296 144.728C148.832 144.527 148.416 144.23 148.077 143.856C147.737 143.482 147.481 143.039 147.327 142.558C147.172 142.077 147.122 141.569 147.18 141.067C147.282 139.998 147.775 139.005 148.563 138.276C149.351 137.547 150.379 137.134 151.453 137.115C151.958 137.105 152.46 137.204 152.925 137.404C153.389 137.604 153.805 137.901 154.145 138.275C154.485 138.65 154.742 139.092 154.897 139.574C155.052 140.055 155.102 140.564 155.044 141.067Z" fill="#FFFEFA"/>
<path d="M162.16 132.22C164.645 129.841 164.891 126.066 162.71 123.788C160.529 121.509 156.747 121.591 154.262 123.97C151.776 126.349 151.53 130.125 153.711 132.403C155.892 134.681 159.674 134.6 162.16 132.22Z" fill="#CAB16C"/>
<path opacity="0.6" d="M162.16 132.22C164.645 129.841 164.891 126.066 162.71 123.788C160.529 121.509 156.747 121.591 154.262 123.97C151.776 126.349 151.53 130.125 153.711 132.403C155.892 134.681 159.674 134.6 162.16 132.22Z" fill="#FFFEFA"/>
<path d="M90.8519 101.997C94.4763 98.5272 94.8373 93.0226 91.6583 89.7017C88.4793 86.3809 82.9641 86.5015 79.3398 89.971C75.7154 93.4406 75.3544 98.9452 78.5334 102.266C81.7124 105.587 87.2276 105.466 90.8519 101.997Z" fill="#CAB16C"/>
<path opacity="0.6" d="M90.8519 101.997C94.4763 98.5272 94.8373 93.0226 91.6583 89.7017C88.4793 86.3809 82.9641 86.5015 79.3398 89.971C75.7154 93.4406 75.3544 98.9452 78.5334 102.266C81.7124 105.587 87.2276 105.466 90.8519 101.997Z" fill="#FFFEFA"/>
<g opacity="0.3">
<path d="M136.901 81.7817H132.756L118.148 150.507H122.293L136.901 81.7817Z" fill="#FFFEFA"/>
<path d="M113.958 150.507L128.565 81.7817H112.994L98.3867 150.507H113.958Z" fill="#FFFEFA"/>
</g>
<path d="M83.5714 77.9384H108.681C108.725 77.9312 108.765 77.9086 108.794 77.8747C108.823 77.8407 108.839 77.7976 108.839 77.7531C108.839 77.7086 108.823 77.6655 108.794 77.6316C108.765 77.5977 108.725 77.5751 108.681 77.5679H83.5714C83.5275 77.5751 83.4875 77.5977 83.4587 77.6316C83.4299 77.6655 83.4141 77.7086 83.4141 77.7531C83.4141 77.7976 83.4299 77.8407 83.4587 77.8747C83.4875 77.9086 83.5275 77.9312 83.5714 77.9384Z" fill="#CAB16C"/>
<path d="M112.306 77.9384H116.841C116.885 77.9312 116.925 77.9086 116.953 77.8747C116.982 77.8407 116.998 77.7976 116.998 77.7531C116.998 77.7086 116.982 77.6655 116.953 77.6316C116.925 77.5977 116.885 77.5751 116.841 77.5679H112.306C112.262 77.5751 112.222 77.5977 112.193 77.6316C112.164 77.6655 112.148 77.7086 112.148 77.7531C112.148 77.7976 112.164 77.8407 112.193 77.8747C112.222 77.9086 112.262 77.9312 112.306 77.9384Z" fill="#CAB16C"/>
<path d="M105.138 153.189H130.268C130.312 153.182 130.351 153.16 130.38 153.126C130.409 153.092 130.425 153.049 130.425 153.004C130.425 152.96 130.409 152.917 130.38 152.883C130.351 152.849 130.312 152.826 130.268 152.819H105.138C105.094 152.826 105.054 152.849 105.025 152.883C104.996 152.917 104.98 152.96 104.98 153.004C104.98 153.049 104.996 153.092 105.025 153.126C105.054 153.16 105.094 153.182 105.138 153.189Z" fill="#CAB16C"/>
<path d="M133.876 153.189H138.411C138.455 153.182 138.495 153.16 138.524 153.126C138.553 153.092 138.568 153.049 138.568 153.004C138.568 152.96 138.553 152.917 138.524 152.883C138.495 152.849 138.455 152.826 138.411 152.819H133.876C133.832 152.826 133.792 152.849 133.763 152.883C133.735 152.917 133.719 152.96 133.719 153.004C133.719 153.049 133.735 153.092 133.763 153.126C133.792 153.16 133.832 153.182 133.876 153.189Z" fill="#CAB16C"/>
<path d="M141.824 124.582C141.825 124.866 141.91 125.143 142.069 125.379C142.227 125.615 142.452 125.798 142.715 125.906C142.978 126.014 143.267 126.042 143.545 125.986C143.824 125.93 144.079 125.793 144.28 125.592C144.481 125.39 144.617 125.134 144.672 124.856C144.727 124.577 144.698 124.288 144.589 124.026C144.48 123.763 144.296 123.539 144.06 123.381C143.824 123.224 143.546 123.139 143.262 123.139V124.582H141.824Z" fill="#CAB16C"/>
<path opacity="0.2" d="M141.824 124.582C141.825 124.866 141.91 125.143 142.069 125.379C142.227 125.615 142.452 125.798 142.715 125.906C142.978 126.014 143.267 126.042 143.545 125.986C143.824 125.93 144.079 125.793 144.28 125.592C144.481 125.39 144.617 125.134 144.672 124.856C144.727 124.577 144.698 124.288 144.589 124.026C144.48 123.763 144.296 123.539 144.06 123.381C143.824 123.224 143.546 123.139 143.262 123.139V124.582H141.824Z" fill="black"/>
<path d="M142.244 129.468C140.233 131.592 136.419 134.264 133.752 131.774C133.283 131.34 132.571 132.046 133.04 132.486C136.177 135.405 140.52 132.743 142.95 130.174C143.395 129.71 142.688 128.998 142.244 129.468Z" fill="#CAB16C"/>
<g opacity="0.6">
<path d="M142.244 129.468C140.233 131.592 136.419 134.264 133.752 131.774C133.283 131.34 132.571 132.046 133.04 132.486C136.177 135.405 140.52 132.743 142.95 130.174C143.395 129.71 142.688 128.998 142.244 129.468Z" fill="black"/>
</g>
<path d="M148.857 124.266C151.426 121.835 154.083 117.493 151.164 114.361C150.724 113.867 150.018 114.598 150.458 115.067C152.928 117.735 150.27 121.549 148.151 123.559C147.681 124.004 148.388 124.71 148.857 124.266Z" fill="#CAB16C"/>
<g opacity="0.6">
<path d="M148.857 124.266C151.426 121.835 154.083 117.493 151.164 114.361C150.724 113.867 150.018 114.598 150.458 115.067C152.928 117.735 150.27 121.549 148.151 123.559C147.681 124.004 148.388 124.71 148.857 124.266Z" fill="black"/>
</g>
<path d="M142.676 132.97C141.792 136.403 141.832 141.467 145.966 142.603C146.097 142.636 146.236 142.616 146.353 142.547C146.469 142.478 146.553 142.366 146.586 142.235C146.62 142.104 146.6 141.965 146.531 141.849C146.462 141.732 146.349 141.648 146.218 141.615C142.691 140.627 142.909 136.062 143.645 133.217C143.678 133.086 143.658 132.947 143.589 132.831C143.52 132.714 143.408 132.63 143.277 132.597C143.146 132.564 143.007 132.584 142.89 132.653C142.774 132.722 142.69 132.834 142.657 132.965L142.676 132.97Z" fill="#CAB16C"/>
<g opacity="0.6">
<path d="M142.676 132.97C141.792 136.403 141.832 141.467 145.966 142.603C146.097 142.636 146.236 142.616 146.353 142.547C146.469 142.478 146.553 142.366 146.586 142.235C146.62 142.104 146.6 141.965 146.531 141.849C146.462 141.732 146.349 141.648 146.218 141.615C142.691 140.627 142.909 136.062 143.645 133.217C143.678 133.086 143.658 132.947 143.589 132.831C143.52 132.714 143.408 132.63 143.277 132.597C143.146 132.564 143.007 132.584 142.89 132.653C142.774 132.722 142.69 132.834 142.657 132.965L142.676 132.97Z" fill="black"/>
</g>
<path d="M152.053 124.814C154.913 124.078 159.497 123.861 160.451 127.388C160.484 127.519 160.568 127.631 160.684 127.7C160.801 127.769 160.94 127.789 161.071 127.756C161.202 127.722 161.314 127.638 161.383 127.522C161.452 127.406 161.472 127.267 161.439 127.136C160.303 123.006 155.239 122.966 151.806 123.846C151.675 123.879 151.562 123.963 151.493 124.08C151.424 124.196 151.404 124.335 151.438 124.466C151.471 124.597 151.555 124.709 151.671 124.778C151.788 124.847 151.927 124.867 152.058 124.834L152.053 124.814Z" fill="#CAB16C"/>
<g opacity="0.6">
<path d="M152.053 124.814C154.913 124.078 159.497 123.861 160.451 127.388C160.484 127.519 160.568 127.631 160.684 127.7C160.801 127.769 160.94 127.789 161.071 127.756C161.202 127.722 161.314 127.638 161.383 127.522C161.452 127.406 161.472 127.267 161.439 127.136C160.303 123.006 155.239 122.966 151.806 123.846C151.675 123.879 151.562 123.963 151.493 124.08C151.424 124.196 151.404 124.335 151.438 124.466C151.471 124.597 151.555 124.709 151.671 124.778C151.788 124.847 151.927 124.867 152.058 124.834L152.053 124.814Z" fill="black"/>
</g>
<path d="M141.574 133.168C142.102 134.234 142.801 135.207 143.644 136.048C147.29 139.693 152.729 140.168 155.787 137.11C158.844 134.052 158.375 128.613 154.729 124.962C153.888 124.121 152.915 123.422 151.849 122.892L141.574 133.168Z" fill="#CAB16C"/>
<path opacity="0.3" d="M141.574 133.168C142.102 134.234 142.801 135.207 143.644 136.048C147.29 139.693 152.729 140.168 155.787 137.11C158.844 134.052 158.375 128.613 154.729 124.962C153.888 124.121 152.915 123.422 151.849 122.892L141.574 133.168Z" fill="black"/>
<path d="M142.605 132.14L150.825 123.92C148.231 122.64 145.272 122.868 143.415 124.73C141.557 126.592 141.325 129.547 142.605 132.14Z" fill="#CAB16C"/>
<path opacity="0.5" d="M142.605 132.14L150.825 123.92C148.231 122.64 145.272 122.868 143.415 124.73C141.557 126.592 141.325 129.547 142.605 132.14Z" fill="black"/>
<path opacity="0.2" d="M141.574 133.168C142.102 134.234 142.801 135.207 143.644 136.048C147.29 139.693 152.729 140.168 155.787 137.11L146.717 128.03L141.574 133.168Z" fill="black"/>
<path d="M134.932 128.564C135.296 127.673 135.833 126.863 136.513 126.182C138.292 124.419 140.465 124.77 142.318 126.217C142.441 126.316 142.619 126.143 142.495 126.044C140.786 124.725 138.736 124.108 136.889 125.516C135.913 126.298 135.156 127.319 134.69 128.48C134.626 128.628 134.873 128.692 134.932 128.544V128.564Z" fill="#263238"/>
<path d="M147.182 116.006C146.02 116.471 144.998 117.231 144.218 118.209C142.81 120.057 143.422 122.102 144.741 123.811C144.84 123.94 145.018 123.762 144.919 123.633C143.477 121.766 143.116 119.602 144.88 117.834C145.562 117.155 146.371 116.616 147.261 116.248C147.409 116.189 147.35 115.947 147.202 116.006H147.182Z" fill="#263238"/>
<path d="M146.821 131.962C147.03 132.169 147.173 132.433 147.231 132.721C147.29 133.009 147.261 133.307 147.15 133.579C147.038 133.851 146.848 134.083 146.604 134.247C146.36 134.41 146.073 134.498 145.779 134.498C145.485 134.498 145.198 134.41 144.954 134.247C144.71 134.083 144.52 133.851 144.408 133.579C144.296 133.307 144.268 133.009 144.327 132.721C144.385 132.433 144.528 132.169 144.737 131.962C145.014 131.688 145.389 131.534 145.779 131.534C146.169 131.534 146.544 131.688 146.821 131.962Z" fill="#FFFEFA"/>
<path d="M152.731 126.054C152.94 126.261 153.083 126.525 153.141 126.813C153.2 127.1 153.171 127.399 153.06 127.671C152.948 127.943 152.758 128.175 152.514 128.339C152.27 128.502 151.983 128.589 151.689 128.589C151.395 128.589 151.108 128.502 150.864 128.339C150.62 128.175 150.43 127.943 150.318 127.671C150.207 127.399 150.178 127.1 150.237 126.813C150.295 126.525 150.438 126.261 150.647 126.054C150.924 125.779 151.299 125.625 151.689 125.625C152.079 125.625 152.454 125.779 152.731 126.054Z" fill="#FFFEFA"/>
<path d="M151.442 135.163C151.651 135.37 151.794 135.634 151.852 135.922C151.911 136.21 151.882 136.509 151.771 136.78C151.659 137.052 151.469 137.284 151.225 137.448C150.981 137.612 150.694 137.699 150.4 137.699C150.106 137.699 149.819 137.612 149.575 137.448C149.331 137.284 149.141 137.052 149.029 136.78C148.918 136.509 148.889 136.21 148.948 135.922C149.006 135.634 149.149 135.37 149.358 135.163C149.635 134.889 150.01 134.735 150.4 134.735C150.79 134.735 151.165 134.889 151.442 135.163Z" fill="#FFFEFA"/>
<path d="M155.931 130.673C156.139 130.88 156.282 131.144 156.341 131.431C156.399 131.719 156.371 132.018 156.259 132.29C156.147 132.562 155.957 132.794 155.713 132.958C155.469 133.121 155.182 133.208 154.888 133.208C154.594 133.208 154.307 133.121 154.063 132.958C153.819 132.794 153.629 132.562 153.518 132.29C153.406 132.018 153.377 131.719 153.436 131.431C153.494 131.144 153.637 130.88 153.846 130.673C154.123 130.398 154.498 130.244 154.888 130.244C155.279 130.244 155.653 130.398 155.931 130.673Z" fill="#FFFEFA"/>
<path d="M81.8991 143.67C81.6556 143.669 81.4173 143.74 81.2143 143.875C81.0114 144.009 80.853 144.201 80.7591 144.426C80.6653 144.651 80.6402 144.898 80.6871 145.137C80.734 145.376 80.8508 145.596 81.0226 145.768C81.1944 145.941 81.4136 146.058 81.6523 146.106C81.8911 146.154 82.1387 146.13 82.3637 146.037C82.5888 145.944 82.7812 145.786 82.9165 145.584C83.0519 145.382 83.1242 145.144 83.1242 144.9H81.8991V143.67Z" fill="#CAB16C"/>
<path opacity="0.2" d="M81.8991 143.67C81.6556 143.669 81.4173 143.74 81.2143 143.875C81.0114 144.009 80.853 144.201 80.7591 144.426C80.6653 144.651 80.6402 144.898 80.6871 145.137C80.734 145.376 80.8508 145.596 81.0226 145.768C81.1944 145.941 81.4136 146.058 81.6523 146.106C81.8911 146.154 82.1387 146.13 82.3637 146.037C82.5888 145.944 82.7812 145.786 82.9165 145.584C83.0519 145.382 83.1242 145.144 83.1242 144.9H81.8991V143.67Z" fill="black"/>
<path d="M77.7195 144.031C75.9065 142.312 73.6242 139.056 75.7435 136.774C76.1189 136.374 75.5162 135.786 75.1358 136.171C72.6411 138.849 74.9185 142.554 77.1118 144.633C77.507 145.014 78.0998 144.411 77.7145 144.031H77.7195Z" fill="#CAB16C"/>
<g opacity="0.6">
<path d="M77.7195 144.031C75.9065 142.312 73.6242 139.056 75.7435 136.774C76.1189 136.374 75.5162 135.786 75.1358 136.171C72.6411 138.849 74.9185 142.554 77.1118 144.633C77.507 145.014 78.0998 144.411 77.7145 144.031H77.7195Z" fill="black"/>
</g>
<path d="M82.1662 149.682C84.241 151.875 87.9509 154.128 90.6284 151.658C91.0335 151.283 90.4258 150.67 90.0257 151.055C87.7434 153.18 84.488 150.897 82.7688 149.079C82.3885 148.679 81.7808 149.282 82.1662 149.682Z" fill="#CAB16C"/>
<g opacity="0.6">
<path d="M82.1662 149.682C84.241 151.875 87.9509 154.128 90.6284 151.658C91.0335 151.283 90.4258 150.67 90.0257 151.055C87.7434 153.18 84.488 150.897 82.7688 149.079C82.3885 148.679 81.7808 149.282 82.1662 149.682Z" fill="black"/>
</g>
<path d="M74.7324 144.401C71.798 143.65 67.4657 143.68 66.5024 147.212C66.4881 147.266 66.4846 147.323 66.4922 147.378C66.4997 147.434 66.5181 147.487 66.5463 147.535C66.5745 147.584 66.612 147.626 66.6566 147.66C66.7012 147.694 66.752 147.719 66.8062 147.733C66.8603 147.747 66.9168 147.751 66.9723 147.743C67.0278 147.736 67.0813 147.717 67.1297 147.689C67.1781 147.661 67.2204 147.624 67.2543 147.579C67.2883 147.534 67.3131 147.484 67.3273 147.429C68.1523 144.416 72.0697 144.604 74.515 145.226C74.5692 145.24 74.6257 145.244 74.6812 145.236C74.7367 145.229 74.7902 145.21 74.8385 145.182C74.8869 145.154 74.9293 145.116 74.9632 145.072C74.9971 145.027 75.0219 144.976 75.0362 144.922C75.0505 144.868 75.0539 144.812 75.0464 144.756C75.0389 144.701 75.0205 144.647 74.9922 144.599C74.964 144.55 74.9266 144.508 74.882 144.474C74.8374 144.44 74.7866 144.415 74.7324 144.401Z" fill="#CAB16C"/>
<g opacity="0.6">
<path d="M74.7324 144.401C71.798 143.65 67.4657 143.68 66.5024 147.212C66.4881 147.266 66.4846 147.323 66.4922 147.378C66.4997 147.434 66.5181 147.487 66.5463 147.535C66.5745 147.584 66.612 147.626 66.6566 147.66C66.7012 147.694 66.752 147.719 66.8062 147.733C66.8603 147.747 66.9168 147.751 66.9723 147.743C67.0278 147.736 67.0813 147.717 67.1297 147.689C67.1781 147.661 67.2204 147.624 67.2543 147.579C67.2883 147.534 67.3131 147.484 67.3273 147.429C68.1523 144.416 72.0697 144.604 74.515 145.226C74.5692 145.24 74.6257 145.244 74.6812 145.236C74.7367 145.229 74.7902 145.21 74.8385 145.182C74.8869 145.154 74.9293 145.116 74.9632 145.072C74.9971 145.027 75.0219 144.976 75.0362 144.922C75.0505 144.868 75.0539 144.812 75.0464 144.756C75.0389 144.701 75.0205 144.647 74.9922 144.599C74.964 144.55 74.9266 144.508 74.882 144.474C74.8374 144.44 74.7866 144.415 74.7324 144.401Z" fill="black"/>
</g>
<path d="M81.6959 152.414C82.3233 154.854 82.511 158.772 79.4976 159.602C79.3882 159.63 79.2947 159.701 79.2377 159.799C79.1808 159.897 79.1649 160.013 79.1938 160.123C79.2226 160.232 79.2937 160.326 79.3914 160.383C79.4892 160.44 79.6055 160.455 79.7149 160.427C83.2421 159.439 83.2767 155.131 82.5258 152.196C82.4916 152.093 82.4191 152.006 82.323 151.953C82.2269 151.901 82.1145 151.887 82.0087 151.915C81.9029 151.943 81.8116 152.01 81.7535 152.103C81.6954 152.195 81.6748 152.306 81.6959 152.414Z" fill="#CAB16C"/>
<g opacity="0.6">
<path d="M81.6959 152.414C82.3233 154.854 82.511 158.772 79.4976 159.602C79.3882 159.63 79.2947 159.701 79.2377 159.799C79.1808 159.897 79.1649 160.013 79.1938 160.123C79.2226 160.232 79.2937 160.326 79.3914 160.383C79.4892 160.44 79.6055 160.455 79.7149 160.427C83.2421 159.439 83.2767 155.131 82.5258 152.196C82.4916 152.093 82.4191 152.006 82.323 151.953C82.2269 151.901 82.1145 151.887 82.0087 151.915C81.9029 151.943 81.8116 152.01 81.7535 152.103C81.6954 152.195 81.6748 152.306 81.6959 152.414Z" fill="black"/>
</g>
<path d="M74.56 143.458C73.6458 143.911 72.8115 144.51 72.09 145.231C68.9778 148.343 68.5678 152.992 71.186 155.605C73.8042 158.218 78.4429 157.813 81.56 154.701C82.2823 153.981 82.88 153.147 83.3285 152.231L74.56 143.458Z" fill="#CAB16C"/>
<path opacity="0.3" d="M74.56 143.458C73.6458 143.911 72.8115 144.51 72.09 145.231C68.9778 148.343 68.5678 152.992 71.186 155.605C73.8042 158.218 78.4429 157.813 81.56 154.701C82.2823 153.981 82.88 153.147 83.3285 152.231L74.56 143.458Z" fill="black"/>
<path d="M75.4375 144.337L82.4622 151.362C83.5539 149.144 83.3613 146.619 81.7706 145.029C80.1799 143.438 77.6556 143.26 75.4375 144.337Z" fill="#CAB16C"/>
<path opacity="0.5" d="M75.4375 144.337L82.4622 151.362C83.5539 149.144 83.3613 146.619 81.7706 145.029C80.1799 143.438 77.6556 143.26 75.4375 144.337Z" fill="black"/>
<path opacity="0.2" d="M74.56 143.458C73.6458 143.911 72.8115 144.51 72.09 145.231C68.9778 148.343 68.5678 152.992 71.186 155.605L78.9418 147.849L74.56 143.458Z" fill="black"/>
<path d="M78.4952 137.782C79.2565 138.094 79.9483 138.554 80.5305 139.135C82.0125 140.652 81.7309 142.489 80.4959 144.075C80.4119 144.179 80.5651 144.332 80.6491 144.223C81.7754 142.766 82.299 141.017 81.0986 139.436C80.4244 138.601 79.5466 137.953 78.5496 137.554C78.4211 137.505 78.3668 137.712 78.4952 137.762V137.782Z" fill="#263238"/>
<path d="M89.2265 148.249C88.8293 147.252 88.181 146.374 87.3444 145.7C85.7636 144.5 84.0148 145.024 82.5575 146.15C82.4488 146.234 82.597 146.387 82.7057 146.303C84.3063 145.068 86.1637 144.762 87.6457 146.268C88.2244 146.853 88.6841 147.544 88.9993 148.304C89.0487 148.432 89.2562 148.378 89.2068 148.249H89.2265Z" fill="#263238"/>
<path d="M75.5831 147.943C75.4068 148.119 75.1824 148.239 74.9381 148.287C74.6938 148.336 74.4407 148.31 74.2106 148.215C73.9806 148.12 73.784 147.958 73.6457 147.751C73.5074 147.544 73.4336 147.3 73.4336 147.051C73.4336 146.802 73.5074 146.559 73.6457 146.352C73.784 146.145 73.9806 145.983 74.2106 145.888C74.4407 145.792 74.6938 145.767 74.9381 145.816C75.1824 145.864 75.4068 145.984 75.5831 146.16C75.8175 146.397 75.9489 146.718 75.9489 147.051C75.9489 147.385 75.8175 147.706 75.5831 147.943Z" fill="#FFFEFA"/>
<path d="M80.6339 152.992C80.4576 153.168 80.2332 153.287 79.9889 153.336C79.7446 153.384 79.4914 153.359 79.2614 153.264C79.0314 153.168 78.8348 153.007 78.6965 152.8C78.5582 152.593 78.4844 152.349 78.4844 152.1C78.4844 151.851 78.5582 151.608 78.6965 151.401C78.8348 151.193 79.0314 151.032 79.2614 150.937C79.4914 150.841 79.7446 150.816 79.9889 150.864C80.2332 150.913 80.4576 151.033 80.6339 151.208C80.7511 151.325 80.8442 151.464 80.9076 151.617C80.9711 151.77 81.0038 151.934 81.0038 152.1C81.0038 152.266 80.9711 152.43 80.9076 152.583C80.8442 152.736 80.7511 152.875 80.6339 152.992Z" fill="#FFFEFA"/>
<path d="M72.8551 151.885C72.6791 152.062 72.4547 152.182 72.2102 152.231C71.9657 152.28 71.7122 152.255 71.4818 152.16C71.2513 152.065 71.0543 151.904 70.9157 151.696C70.7771 151.489 70.7031 151.245 70.7031 150.996C70.7031 150.747 70.7771 150.503 70.9157 150.296C71.0543 150.088 71.2513 149.927 71.4818 149.832C71.7122 149.737 71.9657 149.712 72.2102 149.761C72.4547 149.81 72.6791 149.93 72.8551 150.107C73.0904 150.343 73.2225 150.663 73.2225 150.996C73.2225 151.329 73.0904 151.649 72.8551 151.885Z" fill="#FFFEFA"/>
<path d="M76.6925 155.729C76.5162 155.904 76.2917 156.024 76.0475 156.073C75.8032 156.121 75.55 156.096 75.32 156C75.09 155.905 74.8934 155.744 74.7551 155.536C74.6168 155.329 74.543 155.086 74.543 154.837C74.543 154.588 74.6168 154.344 74.7551 154.137C74.8934 153.93 75.09 153.769 75.32 153.673C75.55 153.578 75.8032 153.553 76.0475 153.601C76.2917 153.65 76.5162 153.769 76.6925 153.945C76.9269 154.183 77.0583 154.503 77.0583 154.837C77.0583 155.171 76.9269 155.491 76.6925 155.729Z" fill="#FFFEFA"/>
<path d="M98.0936 92.462C97.9348 92.3645 97.7508 92.3162 97.5646 92.3231C97.3784 92.3301 97.1985 92.392 97.0475 92.501C96.8964 92.6101 96.781 92.7614 96.7159 92.9359C96.6507 93.1104 96.6386 93.3003 96.6812 93.4817C96.7238 93.6631 96.8192 93.8278 96.9552 93.955C97.0913 94.0823 97.2619 94.1664 97.4457 94.1969C97.6295 94.2273 97.8182 94.2026 97.988 94.126C98.1578 94.0493 98.3011 93.9241 98.3999 93.7661L97.5996 93.2721L98.0936 92.462Z" fill="#CAB16C"/>
<path opacity="0.2" d="M98.0936 92.462C97.9348 92.3645 97.7508 92.3162 97.5646 92.3231C97.3784 92.3301 97.1985 92.392 97.0475 92.501C96.8964 92.6101 96.781 92.7614 96.7159 92.9359C96.6507 93.1104 96.6386 93.3003 96.6812 93.4817C96.7238 93.6631 96.8192 93.8278 96.9552 93.955C97.0913 94.0823 97.2619 94.1664 97.4457 94.1969C97.6295 94.2273 97.8182 94.2026 97.988 94.126C98.1578 94.0493 98.3011 93.9241 98.3999 93.7661L97.5996 93.2721L98.0936 92.462Z" fill="black"/>
<path d="M95.2179 91.0096C94.7239 89.1522 94.551 86.0943 96.863 85.462C97.268 85.3484 97.1198 84.7111 96.7098 84.8198C93.9978 85.5657 93.9829 88.9101 94.5757 91.1578C94.6844 91.5678 95.3266 91.4196 95.2179 91.0096Z" fill="#CAB16C"/>
<g opacity="0.6">
<path d="M95.2179 91.0096C94.7239 89.1522 94.551 86.0943 96.863 85.462C97.268 85.3484 97.1198 84.7111 96.7098 84.8198C93.9978 85.5657 93.9829 88.9101 94.5757 91.1578C94.6844 91.5678 95.3266 91.4196 95.2179 91.0096Z" fill="black"/>
</g>
<path d="M95.8357 96.5029C96.3297 98.7802 97.8117 101.769 100.578 101.221C100.993 101.137 100.84 100.494 100.43 100.578C98.0735 101.072 96.8681 98.2319 96.4779 96.3498C96.3939 95.9348 95.7517 96.0879 95.8357 96.5029Z" fill="#CAB16C"/>
<g opacity="0.6">
<path d="M95.8357 96.5029C96.3297 98.7802 97.8117 101.769 100.578 101.221C100.993 101.137 100.84 100.494 100.43 100.578C98.0735 101.072 96.8681 98.2319 96.4779 96.3498C96.3939 95.9348 95.7517 96.0879 95.8357 96.5029Z" fill="black"/>
</g>
<path d="M93.1075 90.0414C91.4921 88.3618 88.6615 86.6328 86.5867 88.5594C86.2804 88.8459 86.7299 89.3251 87.0412 89.0534C88.7998 87.4182 91.2896 89.1225 92.6332 90.5354C92.9247 90.8367 93.4039 90.3872 93.1272 90.0809L93.1075 90.0414Z" fill="#CAB16C"/>
<g opacity="0.6">
<path d="M93.1075 90.0414C91.4921 88.3618 88.6615 86.6328 86.5867 88.5594C86.2804 88.8459 86.7299 89.3251 87.0412 89.0534C88.7998 87.4182 91.2896 89.1225 92.6332 90.5354C92.9247 90.8367 93.4039 90.3872 93.1272 90.0809L93.1075 90.0414Z" fill="black"/>
</g>
<path d="M94.4279 98.0985C93.8499 99.951 92.3877 102.589 90.0807 101.912C89.9975 101.887 89.9076 101.895 89.8307 101.936C89.7538 101.977 89.6963 102.046 89.6707 102.13C89.6452 102.213 89.6537 102.303 89.6945 102.38C89.7352 102.456 89.8049 102.514 89.8881 102.54C92.5902 103.335 94.3637 100.519 95.0553 98.2912C95.068 98.25 95.0724 98.2067 95.0683 98.1638C95.0642 98.1209 95.0517 98.0792 95.0315 98.0411C95.0114 98.0031 94.9839 97.9693 94.9507 97.9419C94.9174 97.9144 94.8791 97.8938 94.8379 97.8812C94.7547 97.8556 94.6648 97.8642 94.5879 97.9049C94.511 97.9457 94.4535 98.0153 94.4279 98.0985Z" fill="#CAB16C"/>
<g opacity="0.6">
<path d="M94.4279 98.0985C93.8499 99.951 92.3877 102.589 90.0807 101.912C89.9975 101.887 89.9076 101.895 89.8307 101.936C89.7538 101.977 89.6963 102.046 89.6707 102.13C89.6452 102.213 89.6537 102.303 89.6945 102.38C89.7352 102.456 89.8049 102.514 89.8881 102.54C92.5902 103.335 94.3637 100.519 95.0553 98.2912C95.068 98.25 95.0724 98.2067 95.0683 98.1638C95.0642 98.1209 95.0517 98.0792 95.0315 98.0411C95.0114 98.0031 94.9839 97.9693 94.9507 97.9419C94.9174 97.9144 94.8791 97.8938 94.8379 97.8812C94.7547 97.8556 94.6648 97.8642 94.5879 97.9049C94.511 97.9457 94.4535 98.0153 94.4279 98.0985Z" fill="black"/>
</g>
<path d="M93.3654 89.3547C92.5861 89.2826 91.8003 89.3376 91.0387 89.5177C87.7387 90.2933 85.6047 93.1684 86.2469 95.9397C86.8891 98.7111 90.105 100.322 93.4049 99.5459C94.1662 99.3655 94.8935 99.0636 95.5588 98.6518L93.3654 89.3547Z" fill="#CAB16C"/>
<path opacity="0.3" d="M93.3654 89.3547C92.5861 89.2826 91.8003 89.3376 91.0387 89.5177C87.7387 90.2933 85.6047 93.1684 86.2469 95.9397C86.8891 98.7111 90.105 100.322 93.4049 99.5459C94.1662 99.3655 94.8935 99.0636 95.5588 98.6518L93.3654 89.3547Z" fill="black"/>
<path d="M93.5977 90.2834L95.3415 97.7231C96.9519 96.7351 97.851 94.9814 97.4509 93.2771C97.0507 91.5728 95.4897 90.4662 93.5977 90.2834Z" fill="#CAB16C"/>
<path opacity="0.5" d="M93.5977 90.2834L95.3415 97.7231C96.9519 96.7351 97.851 94.9814 97.4509 93.2771C97.0507 91.5728 95.4897 90.4662 93.5977 90.2834Z" fill="black"/>
<path opacity="0.2" d="M93.3654 89.3547C92.5861 89.2826 91.8003 89.3376 91.0387 89.5177C87.7387 90.2933 85.6047 93.1684 86.2469 95.9397L94.4621 94.0033L93.3654 89.3547Z" fill="black"/>
<path d="M98.2531 87.2305C98.6249 87.743 98.8919 88.3238 99.0386 88.9397C99.4091 90.5452 98.4655 91.6222 97.0082 92.1705C96.9144 92.21 96.949 92.3681 97.0478 92.3335C98.3766 91.8395 99.4288 90.9009 99.2806 89.3695C99.1793 88.5492 98.8661 87.7694 98.3717 87.107C98.3124 87.023 98.1938 87.1366 98.2531 87.2206V87.2305Z" fill="#263238"/>
<path d="M101.039 98.4196C101.183 97.6072 101.113 96.7714 100.836 95.9941C100.293 94.5664 98.9346 94.2058 97.5217 94.349C97.418 94.349 97.4575 94.5219 97.5613 94.5121C99.1075 94.349 100.436 94.8924 100.817 96.4881C100.962 97.1051 100.983 97.7447 100.881 98.3702C100.881 98.4739 101.019 98.5184 101.039 98.4147V98.4196Z" fill="#263238"/>
<path d="M92.2403 92.704C92.0495 92.7528 91.8484 92.7434 91.6629 92.677C91.4775 92.6106 91.3161 92.4903 91.1995 92.3316C91.0829 92.1728 91.0164 91.9828 91.0086 91.786C91.0008 91.5892 91.052 91.3945 91.1556 91.227C91.2592 91.0595 91.4106 90.9267 91.5902 90.8459C91.7698 90.765 91.9695 90.7397 92.1636 90.7731C92.3577 90.8066 92.5374 90.8973 92.6796 91.0336C92.8218 91.1699 92.92 91.3457 92.9615 91.5382C93.0155 91.7881 92.9705 92.0491 92.836 92.2666C92.7015 92.484 92.488 92.6408 92.2403 92.704Z" fill="#FFFEFA"/>
<path d="M93.4981 98.0491C93.3073 98.0979 93.1062 98.0885 92.9207 98.0221C92.7353 97.9557 92.5739 97.8354 92.4573 97.6767C92.3407 97.5179 92.2742 97.3279 92.2664 97.1311C92.2586 96.9342 92.3098 96.7396 92.4134 96.5721C92.517 96.4045 92.6684 96.2718 92.848 96.191C93.0276 96.1101 93.2273 96.0848 93.4214 96.1182C93.6155 96.1517 93.7952 96.2424 93.9374 96.3787C94.0796 96.515 94.1778 96.6907 94.2194 96.8833C94.2733 97.1332 94.2283 97.3942 94.0938 97.6116C93.9593 97.8291 93.7458 97.9859 93.4981 98.0491Z" fill="#FFFEFA"/>
<path d="M88.8554 94.1762C88.6644 94.2261 88.4629 94.2178 88.2767 94.1522C88.0906 94.0865 87.9283 93.9667 87.8109 93.808C87.6935 93.6493 87.6264 93.4591 87.6181 93.2619C87.6098 93.0647 87.6607 92.8695 87.7644 92.7016C87.868 92.5336 88.0196 92.4005 88.1996 92.3195C88.3796 92.2384 88.5797 92.2132 88.7742 92.2469C88.9686 92.2807 89.1485 92.3719 89.2907 92.5088C89.4328 92.6458 89.5307 92.8222 89.5717 93.0153C89.6244 93.2637 89.5794 93.523 89.446 93.7392C89.3126 93.9553 89.1011 94.1118 88.8554 94.1762Z" fill="#FFFEFA"/>
<path d="M89.8153 98.2418C89.6245 98.2915 89.4233 98.283 89.2374 98.2174C89.0515 98.1518 88.8894 98.0321 88.7721 97.8737C88.6548 97.7152 88.5876 97.5253 88.579 97.3284C88.5705 97.1314 88.6211 96.9365 88.7243 96.7685C88.8275 96.6005 88.9786 96.4673 89.1581 96.3859C89.3377 96.3045 89.5375 96.2786 89.7318 96.3117C89.9262 96.3448 90.1062 96.4352 90.2487 96.5714C90.3912 96.7076 90.4897 96.8833 90.5316 97.0759C90.5857 97.3251 90.5414 97.5856 90.4079 97.8029C90.2744 98.0202 90.0621 98.1774 89.8153 98.2418Z" fill="#FFFEFA"/>
<path d="M188.353 129.991C188.353 129.991 186.767 161.795 193.407 173.626C199.271 184.069 207.659 196.696 207.659 196.696L213.004 193.352C213.004 193.352 205.386 175.523 202.096 170.8C200.165 168.034 199.429 163.929 200.313 156.914C201.499 147.528 202.783 136.912 198.105 127.368L188.353 129.991Z" fill="#263238"/>
<path opacity="0.5" d="M192.002 135.722C192.002 135.722 192.724 141.941 188.737 151.905C188.426 147.182 188.347 142.628 188.352 139.135L188.406 139.026L192.002 135.722Z" fill="black"/>
<path d="M212.138 193.959L215.374 199.27L212.449 200.752L209.258 196.093L212.138 193.959Z" fill="#FFC3BD"/>
<path d="M210.156 200.371C209.849 200.623 209.46 200.753 209.064 200.737C209 200.709 208.946 200.663 208.909 200.604C208.872 200.544 208.854 200.476 208.856 200.406C208.849 200.285 208.886 200.165 208.96 200.07C209.395 199.576 210.936 199.492 210.981 199.487C210.999 199.486 211.018 199.491 211.033 199.501C211.049 199.51 211.062 199.525 211.07 199.541C211.079 199.557 211.084 199.575 211.084 199.593C211.084 199.612 211.079 199.63 211.07 199.645C210.787 199.913 210.481 200.156 210.156 200.371ZM209.252 200.08C209.203 200.112 209.158 200.15 209.118 200.193C209.091 200.219 209.069 200.251 209.056 200.286C209.042 200.321 209.036 200.359 209.039 200.396C209.039 200.524 209.094 200.559 209.133 200.569C209.415 200.678 210.215 200.164 210.758 199.704C210.238 199.731 209.727 199.855 209.252 200.07V200.08Z" fill="#CAB16C"/>
<path d="M211.057 199.655H211.023C210.529 199.734 209.328 199.541 209.16 199.161C209.111 199.067 209.111 198.919 209.304 198.766C209.372 198.71 209.451 198.668 209.536 198.644C209.621 198.619 209.71 198.612 209.798 198.623C210.415 198.692 211.057 199.492 211.087 199.527C211.095 199.541 211.1 199.557 211.1 199.574C211.1 199.59 211.095 199.606 211.087 199.62C211.08 199.634 211.07 199.646 211.057 199.655ZM209.457 198.875L209.412 198.899C209.284 198.998 209.309 199.057 209.319 199.082C209.437 199.309 210.307 199.522 210.83 199.502C210.56 199.165 210.193 198.92 209.778 198.8C209.665 198.785 209.551 198.811 209.457 198.875Z" fill="#CAB16C"/>
<path d="M211.105 198.993L214.563 196.74C214.627 196.699 214.702 196.681 214.777 196.688C214.853 196.695 214.923 196.728 214.978 196.78L217.448 199.191C217.5 199.242 217.541 199.303 217.569 199.371C217.597 199.438 217.612 199.51 217.612 199.583C217.612 199.656 217.597 199.729 217.569 199.796C217.541 199.864 217.5 199.925 217.448 199.976L217.359 200.07C216.095 200.86 214.943 201.512 213.407 202.54C211.574 203.735 212.182 203.652 210.048 205.084C208.759 205.949 207.578 204.625 208.072 204.195C210.389 202.219 210.152 201.305 210.542 199.749C210.631 199.437 210.831 199.168 211.105 198.993Z" fill="#263238"/>
<path opacity="0.1" d="M211.412 192.892L212.627 194.883L209.742 196.696L208.68 195.15L211.412 192.892Z" fill="black"/>
<path d="M212.493 190.817L213.679 193.258L207.479 197.215L205.637 195.061L212.493 190.817Z" fill="#CAB16C"/>
<path d="M182.176 128.934C182.176 128.934 167.104 158.451 168.068 170.633C169.031 182.815 173.615 198.791 173.615 198.791L179.608 197.882C179.608 197.882 179.005 181.002 177.029 171.601C176.327 168.256 179.449 161.978 183.164 156.148C188.134 148.353 195.248 139.436 192.97 128.939L182.176 128.934Z" fill="#263238"/>
<path d="M178.233 196.464L179.018 202.634L175.743 202.792L174.73 197.239L178.233 196.464Z" fill="#FFC3BD"/>
<path d="M173.888 203.088C173.493 203.131 173.097 203.025 172.776 202.792C172.736 202.735 172.715 202.667 172.715 202.597C172.715 202.527 172.736 202.459 172.776 202.402C172.843 202.3 172.945 202.226 173.063 202.194C173.695 202.026 175.009 202.792 175.068 202.827C175.084 202.836 175.096 202.85 175.103 202.867C175.11 202.884 175.112 202.903 175.108 202.92C175.104 202.939 175.095 202.956 175.082 202.969C175.069 202.982 175.052 202.991 175.034 202.995C174.655 203.06 174.272 203.091 173.888 203.088ZM173.29 202.347C173.234 202.34 173.178 202.34 173.122 202.347C173.084 202.353 173.049 202.368 173.018 202.39C172.987 202.413 172.962 202.442 172.944 202.476C172.875 202.584 172.9 202.639 172.944 202.668C173.117 202.915 174.07 202.93 174.777 202.851C174.312 202.587 173.8 202.416 173.27 202.347H173.29Z" fill="#CAB16C"/>
<path d="M175.014 202.99H174.974C174.525 202.782 173.621 201.957 173.705 201.508C173.705 201.409 173.794 201.285 174.041 201.261C174.129 201.252 174.219 201.262 174.304 201.289C174.389 201.316 174.467 201.36 174.535 201.419C175.029 201.819 175.103 202.841 175.108 202.901C175.11 202.917 175.108 202.934 175.101 202.949C175.094 202.963 175.082 202.976 175.068 202.985C175.06 202.989 175.051 202.992 175.042 202.993C175.032 202.994 175.023 202.993 175.014 202.99ZM174.1 201.453H174.046C173.887 201.453 173.878 201.527 173.868 201.552C173.868 201.809 174.436 202.456 174.9 202.738C174.861 202.307 174.688 201.9 174.406 201.572C174.322 201.496 174.213 201.455 174.1 201.458V201.453Z" fill="#CAB16C"/>
<path d="M175.42 202.466L179.55 202.501C179.625 202.502 179.698 202.53 179.757 202.578C179.815 202.626 179.855 202.693 179.871 202.767L180.587 206.131C180.604 206.202 180.606 206.276 180.594 206.348C180.582 206.42 180.555 206.489 180.516 206.551C180.477 206.612 180.426 206.666 180.366 206.707C180.306 206.749 180.239 206.778 180.167 206.793H180.054C178.572 206.754 177.238 206.665 175.385 206.65C173.197 206.65 173.75 206.897 171.176 206.912C169.625 206.912 169.358 205.153 170.015 205.074C173.029 204.724 173.35 203.815 174.516 202.748C174.774 202.549 175.094 202.449 175.42 202.466Z" fill="#263238"/>
<path opacity="0.1" d="M178.36 197.437L178.651 199.749L175.277 200.223L174.941 198.381L178.36 197.437Z" fill="black"/>
<path d="M180.11 195.92L180.194 198.632L172.917 199.709L172.117 196.992L180.11 195.92Z" fill="#CAB16C"/>
<path d="M180.739 102.866L177.029 97.4316C177.029 97.4316 176.999 94.6307 176.313 93.781C175.626 92.9313 174.994 93.6674 174.574 93.618C174.021 93.5488 173.561 91.8692 172.687 93.0597C171.812 94.2503 171.773 95.3964 172.81 96.3794L174.885 98.3554C176.153 101.062 177.563 103.701 179.109 106.259L180.739 102.866Z" fill="#FFC3BD"/>
<path d="M196.582 83.2785C199.564 86.8086 202.305 90.5352 204.787 94.433C209.006 101.166 212.953 108.759 219.785 106.21C232.738 101.339 219.953 71.2644 219.953 71.2644L217.72 70.726L213.101 72.3611L204.624 76.7182L199.324 79.9144L197.061 81.5495L196.582 83.2785Z" fill="#CAB16C"/>
<path opacity="0.7" d="M196.582 83.2785C199.564 86.8086 202.305 90.5352 204.787 94.433C209.006 101.166 212.953 108.759 219.785 106.21C232.738 101.339 219.953 71.2644 219.953 71.2644L217.72 70.726L213.101 72.3611L204.624 76.7182L199.324 79.9144L197.061 81.5495L196.582 83.2785Z" fill="#FFFEFA"/>
<path opacity="0.1" d="M223.534 103.271C215.254 108.705 211.258 97.8367 209.618 94.2503C207.642 89.9722 203.69 82.6462 201.482 78.6102L199.323 79.9144L197.06 81.5495L196.566 83.2785C199.548 86.8086 202.29 90.5352 204.772 94.433C208.99 101.166 212.938 108.759 219.77 106.21C221.304 105.653 222.622 104.624 223.534 103.271Z" fill="black"/>
<path d="M207.279 75.3548C200.827 78.6695 196.045 82.2362 196.598 83.3131C197.152 84.39 202.837 82.582 209.289 79.2623C215.741 75.9426 220.528 72.3809 219.969 71.299C219.411 70.2172 213.735 72.0351 207.279 75.3548Z" fill="#CAB16C"/>
<path opacity="0.4" d="M207.279 75.3548C200.827 78.6695 196.045 82.2362 196.598 83.3131C197.152 84.39 202.837 82.582 209.289 79.2623C215.741 75.9426 220.528 72.3809 219.969 71.299C219.411 70.2172 213.735 72.0351 207.279 75.3548Z" fill="#FFFEFA"/>
<path d="M206.887 74.8361C203.779 76.4416 200.534 78.0372 197.767 80.2058C197.021 80.7888 195.752 81.8163 195.707 82.9179L191.395 85.136L158.647 101.971C158.247 102.174 158.909 103.453 159.304 103.251L164.091 100.781L196.364 84.1875C197.288 84.7951 198.864 84.3554 199.768 84.0887C203.137 83.1007 206.343 81.3964 209.445 79.8008C212.548 78.2051 215.803 76.5947 218.57 74.426C219.469 73.7196 221.168 72.3512 220.467 70.968C219.765 69.5848 217.671 70.1875 216.569 70.5086C213.19 71.5312 210.004 73.2404 206.887 74.8361ZM207.549 76.1155C208.625 75.5622 218.328 70.1875 219.167 71.7387C219.869 73.033 209.702 78.0619 208.793 78.5312C207.805 79.0499 197.925 84.3999 197.204 82.9772C196.483 81.5545 206.546 76.6293 207.549 76.1155Z" fill="#CAB16C"/>
<path opacity="0.2" d="M207.549 76.1155C208.626 75.5622 218.328 70.1875 219.168 71.7387C219.87 73.033 209.703 78.0619 208.794 78.5312C207.806 79.0499 197.926 84.3999 197.205 82.9772C196.484 81.5545 206.546 76.6293 207.549 76.1155Z" fill="#FFFEFA"/>
<path d="M177.261 84.7704C177.261 84.7704 174.045 87.8085 177.453 88.9398L178.387 85.9313L177.261 84.7704Z" fill="#263238"/>
<path d="M176.893 90.6243C176.917 90.9405 177.1 91.1875 177.307 91.1726C177.515 91.1578 177.678 90.8713 177.648 90.5601C177.619 90.2489 177.436 89.9969 177.228 90.0167C177.021 90.0364 176.853 90.3032 176.893 90.6243Z" fill="#263238"/>
<path d="M178.157 90.9454L176.531 93.4154C176.819 93.6071 177.148 93.7281 177.491 93.7684C177.835 93.8088 178.183 93.7674 178.507 93.6476L178.157 90.9454Z" fill="#ED893E"/>
<path d="M191.367 99.5509C191.367 99.5509 188.635 99.7386 187.83 94.7937C187.83 94.7937 185.157 94.0873 183.799 95.8212C182.44 97.5551 186.086 100.44 184.342 102.214C182.598 103.987 191.367 99.5509 191.367 99.5509Z" fill="#FFC3BD"/>
<path opacity="0.1" d="M185.625 97.565C185.322 98.2804 184.932 98.9557 184.464 99.5756C184.212 98.963 183.886 98.3356 183.684 97.7379L185.625 97.565Z" fill="black"/>
<path d="M188.988 87.5368C189.507 91.7506 189.818 93.529 188.108 96.0583C185.298 98.8346 180.239 99.5855 178.471 95.6088C176.88 92.0273 176.302 85.7288 180.071 83.3082C180.71 82.8935 181.425 82.609 182.174 82.4709C182.923 82.3329 183.692 82.3441 184.437 82.5038C185.182 82.6635 185.887 82.9686 186.514 83.4016C187.141 83.8346 187.676 84.3871 188.089 85.0273C188.577 85.7837 188.885 86.6424 188.988 87.5368Z" fill="#FFC3BD"/>
<path d="M176.674 88.1494C176.702 88.1509 176.728 88.1595 176.752 88.1742C176.775 88.1888 176.794 88.2092 176.808 88.2333C176.908 88.4156 177.049 88.5718 177.221 88.6893C177.393 88.8069 177.589 88.8825 177.796 88.9101C177.839 88.9138 177.879 88.9337 177.908 88.9657C177.938 88.9977 177.954 89.0396 177.954 89.083C177.952 89.1051 177.947 89.1267 177.937 89.1466C177.928 89.1665 177.914 89.1843 177.898 89.199C177.881 89.2137 177.862 89.225 177.841 89.2322C177.82 89.2394 177.798 89.2424 177.776 89.2411C177.513 89.2147 177.261 89.1243 177.042 88.9779C176.822 88.8315 176.642 88.6335 176.516 88.4013C176.505 88.3826 176.497 88.3618 176.494 88.3401C176.491 88.3184 176.492 88.2963 176.497 88.2751C176.503 88.2539 176.513 88.234 176.526 88.2166C176.54 88.1993 176.556 88.1848 176.575 88.1741C176.606 88.1575 176.64 88.149 176.674 88.1494Z" fill="#263238"/>
<path d="M182.329 90.896C182.329 90.896 181.874 87.8826 180.427 87.1614C180.427 87.1614 181.049 88.6434 179.439 88.3272C177.828 88.011 175.818 86.124 177.641 83.6737C179.463 81.2235 184.008 79.6723 186.918 82.4881C186.918 82.4881 191.897 83.4415 191.64 91.1084C191.596 92.4323 190.267 92.9016 189.862 93.7464C188.266 97.0809 184.65 97.486 183.934 93.8551C183.746 92.7165 183.181 91.6743 182.329 90.896Z" fill="#263238"/>
<path d="M182.844 90.5897C182.844 90.5897 181.263 90.1303 180.868 91.5777C180.882 91.5926 180.601 88.92 182.844 90.5897Z" fill="#263238"/>
<path d="M190.801 82.9426C190.801 82.9426 189.645 81.7718 188.598 82.8586C188.598 82.8586 189.66 80.3985 190.801 82.9426Z" fill="#263238"/>
<path d="M182.424 90.402C182.157 90.7391 181.961 91.1259 181.845 91.5398C181.73 91.9537 181.698 92.3864 181.752 92.8127C181.9 93.9539 183.036 94.0873 183.881 93.4006C184.647 92.7782 185.482 91.4246 184.904 90.4712C184.775 90.2614 184.596 90.0871 184.382 89.9639C184.169 89.8408 183.929 89.7727 183.682 89.7658C183.436 89.759 183.192 89.8135 182.973 89.9246C182.753 90.0357 182.564 90.1998 182.424 90.402Z" fill="#FFC3BD"/>
<path d="M198.648 126.849C198.03 120.472 201.088 107.672 196.286 101.601C193.09 97.5601 179.841 99.6793 178.216 103.537C177.356 105.578 179.935 115.487 180.844 119.405C181.338 121.499 181.941 129.384 181.941 129.384C181.941 129.384 185.962 130.209 192.053 129.552C194.231 129.314 196.42 129.384 198.909 128.504C198.909 128.504 198.687 127.259 198.648 126.849Z" fill="#CAB16C"/>
<path opacity="0.1" d="M178.066 110.019L180.764 106.862L181.994 106.003C181.994 106.003 180.932 111.15 179.321 114.43C178.852 112.998 178.397 111.486 178.066 110.019Z" fill="black"/>
<path d="M178.688 104.896L171.772 111.219L167.662 102.456L166.729 99.4422C166.729 99.4422 165.336 98.059 165.103 97.0809C164.871 96.1028 162.787 97.9651 162.589 98.7654C162.391 99.5657 161.359 101.142 162.895 102.016C163.73 102.464 164.475 103.061 165.094 103.78C165.094 103.78 167.929 116.13 170.824 116.624C173.719 117.118 180.625 109.214 180.625 109.214L178.688 104.896Z" fill="#FFC3BD"/>
<path d="M180.033 101.601C180.033 101.601 176.93 102.431 175.379 106.595C175.379 106.595 174.391 106.467 174.016 107.816C175.573 109.316 176.841 111.092 177.755 113.052C178.095 112.974 178.4 112.787 178.623 112.519C178.846 112.252 178.975 111.918 178.99 111.57C178.99 111.57 185.096 105.395 180.033 101.601Z" fill="#CAB16C"/>
<path d="M72.332 96.9771L73.814 94.2157C73.814 94.2157 73.0187 92.5114 73.3941 91.3455C73.7696 90.1797 74.5155 90.239 74.7378 89.4091C74.9601 88.5791 76.1062 88.4606 76.1062 88.4606C76.1062 88.4606 78.7491 91.3455 78.2106 92.5953C77.6722 93.8452 75.9926 95.3321 75.9926 95.3321L74.4513 98.8889L72.332 96.9771Z" fill="#FFB573"/>
<path d="M56.6861 82.8982C56.6861 82.8982 59.3191 82.6413 61.0481 86.0993C62.7771 89.5573 67.3071 99.5262 68.7051 99.4027C70.1031 99.2792 72.5435 95.7422 72.5435 95.7422C72.5435 95.7422 73.5661 95.6483 75.2951 98.1183C75.2951 98.1183 72.3311 104.624 67.7171 104.624C63.7058 104.624 59.2401 96.8043 59.2401 96.8043C59.2401 96.8043 55.2881 86.6081 56.6861 82.8982Z" fill="#263238"/>
<path opacity="0.2" d="M58.6719 95.2333C59.0029 96.1966 59.24 96.8043 59.24 96.8043C60.1111 98.272 61.1025 99.6649 62.204 100.969C61.1863 96.3893 58.9189 89.2708 58.9189 89.2708L58.6719 95.2333Z" fill="black"/>
<path d="M43.9378 82.004C45.4198 80.3046 44.9258 76.9356 44.501 74.594L49.1495 78.546C48.6802 80.438 48.6012 81.5396 51.3231 82.1917L54.5193 82.8734L55.3443 86.203C55.3443 86.203 53.8178 87.9765 53.2003 88.179C52.5828 88.3815 48.5913 88.426 48.5913 88.426L45.9928 88.016C45.9928 88.016 42.6633 85.793 42.5793 85.5855C42.1148 85.0238 41.6201 84.4878 41.0973 83.98L40.875 82.6808L43.4734 82.251C43.6514 82.2226 43.8148 82.1357 43.9378 82.004Z" fill="#FFB573"/>
<path opacity="0.2" d="M46.3874 76.1946L49.1192 78.5658C49 79.0054 48.9222 79.4553 48.887 79.9095C47.8447 79.7563 46.2145 78.8721 45.9922 77.7457C45.993 77.2039 46.1288 76.6708 46.3874 76.1946Z" fill="black"/>
<path d="M41.4966 70.8445C42.539 74.673 42.8996 76.3131 45.2708 77.8939C48.8424 80.275 53.3131 78.1508 53.4366 74.0901C53.5453 70.4345 51.8163 64.7683 47.6963 64.0372C46.7907 63.8737 45.8584 63.9429 44.9868 64.2383C44.1153 64.5336 43.333 65.0455 42.7133 65.7258C42.0937 66.4062 41.657 67.2328 41.4442 68.1281C41.2314 69.0234 41.2494 69.9581 41.4966 70.8445Z" fill="#FFB573"/>
<path d="M47.8872 70.5728C47.9564 70.889 48.1737 71.1113 48.3812 71.0668C48.5887 71.0224 48.7023 70.7309 48.6381 70.4148C48.5738 70.0986 48.3466 69.8763 48.1441 69.9208C47.9415 69.9652 47.8378 70.2715 47.8872 70.5728Z" fill="#263238"/>
<path d="M51.4567 69.8417C51.5258 70.1628 51.7432 70.3752 51.9507 70.3357C52.1582 70.2962 52.2718 69.9998 52.2076 69.6836C52.1433 69.3675 51.9161 69.1501 51.7136 69.1896C51.511 69.2292 51.3776 69.5256 51.4567 69.8417Z" fill="#263238"/>
<path d="M50.4727 70.642C50.9055 71.3033 51.4275 71.9017 52.0238 72.4204C51.8859 72.5692 51.7173 72.686 51.5295 72.7628C51.3418 72.8396 51.1396 72.8745 50.937 72.865L50.4727 70.642Z" fill="#ED893E"/>
<path d="M50.8831 74.9349C51.041 74.926 51.1979 74.9045 51.3524 74.8706C51.3769 74.8658 51.3986 74.852 51.4132 74.8318C51.4279 74.8117 51.4344 74.7867 51.4314 74.762C51.4291 74.7495 51.4243 74.7376 51.4172 74.7271C51.4102 74.7166 51.4011 74.7076 51.3905 74.7006C51.3798 74.6937 51.3679 74.689 51.3555 74.6868C51.343 74.6846 51.3302 74.685 51.3178 74.6879C50.9268 74.7776 50.5201 74.7742 50.1306 74.6781C49.7411 74.582 49.3795 74.3959 49.0751 74.1346C49.0574 74.1169 49.0334 74.107 49.0084 74.107C48.9834 74.107 48.9594 74.1169 48.9417 74.1346C48.924 74.1523 48.9141 74.1763 48.9141 74.2013C48.9141 74.2263 48.924 74.2503 48.9417 74.268C49.2048 74.5025 49.5119 74.6823 49.8453 74.7968C50.1786 74.9113 50.5314 74.9583 50.8831 74.9349Z" fill="#263238"/>
<path d="M46.3018 70.148C46.3428 70.1462 46.3822 70.1313 46.4142 70.1056C46.4462 70.0798 46.4691 70.0445 46.4796 70.0047C46.5979 69.7207 46.7735 69.464 46.9953 69.2507C47.2171 69.0373 47.4805 68.872 47.7689 68.7648C47.793 68.7565 47.8152 68.7435 47.8343 68.7265C47.8533 68.7096 47.8688 68.689 47.8798 68.666C47.8908 68.6431 47.8972 68.6181 47.8985 68.5927C47.8998 68.5672 47.8961 68.5418 47.8875 68.5178C47.8707 68.4716 47.8365 68.4338 47.7922 68.4125C47.7478 68.3913 47.6969 68.3883 47.6504 68.4042C47.3047 68.5286 46.9894 68.7251 46.7254 68.9806C46.4614 69.2361 46.2547 69.5448 46.119 69.8862C46.1069 69.934 46.1142 69.9846 46.1391 70.0271C46.1641 70.0696 46.2047 70.1006 46.2524 70.1134C46.2657 70.1288 46.2827 70.1407 46.3018 70.148Z" fill="#263238"/>
<path d="M52.1804 67.9744C52.2142 67.9725 52.2469 67.962 52.2754 67.9438C52.304 67.9257 52.3274 67.9005 52.3434 67.8707C52.3554 67.8487 52.3629 67.8245 52.3654 67.7996C52.3679 67.7747 52.3654 67.7495 52.358 67.7256C52.3507 67.7016 52.3386 67.6794 52.3225 67.6602C52.3064 67.641 52.2866 67.6252 52.2644 67.6138C51.9994 67.4625 51.7012 67.3789 51.3962 67.3703C51.0912 67.3617 50.7887 67.4283 50.5156 67.5644C50.4735 67.5865 50.4418 67.6242 50.427 67.6694C50.4122 67.7146 50.4157 67.7637 50.4366 67.8064C50.4605 67.8493 50.5003 67.881 50.5474 67.8949C50.5945 67.9087 50.6452 67.9036 50.6885 67.8805C50.9053 67.7828 51.1421 67.7372 51.3797 67.7475C51.6174 67.7578 51.8493 67.8237 52.0569 67.9398C52.0934 67.9641 52.1366 67.9762 52.1804 67.9744Z" fill="#263238"/>
<path d="M46.708 119.746C48.4172 134.926 53.2436 147.904 54.612 157.458C55.9458 166.878 54.7305 168.182 61.9923 197.259L68.2217 195.703L63.5978 155.383C63.5978 155.383 61.6218 137.283 59.7792 114.998C59.7743 114.998 46.3078 116.184 46.708 119.746Z" fill="#CAB16C"/>
<path opacity="0.1" d="M49.6719 136.137C50.7241 140.612 51.8356 144.786 52.7742 148.61C54.7206 138.305 53.4362 122.369 53.4362 122.369L49.6719 136.137Z" fill="black"/>
<path d="M40.9395 117.256C38.9191 132.397 40.1639 146.15 39.4575 155.753C38.7313 165.633 37.8125 167.772 37.8125 197.743H44.2345L48.6805 155.916C48.6805 155.916 51.9755 137.806 55.5965 115.739C55.5916 115.739 41.4138 113.704 40.9395 117.256Z" fill="#CAB16C"/>
<path d="M41.9507 82.498C41.9507 82.498 44.2528 87.2701 49.6868 86.7761C55.1208 86.2821 52.9817 82.498 52.9817 82.498C52.9817 82.498 56.9337 82.167 58.9097 83.649C60.8857 85.131 59.8977 116.09 59.8977 116.09C59.8977 116.09 50.5117 118.066 40.7948 116.91C40.7948 116.91 35.6917 83.8121 38.8188 83.155L41.9507 82.498Z" fill="#263238"/>
<path opacity="0.4" d="M39.1808 105.039L39.6748 89.2708L37.9062 91.968C38.1582 95.9644 38.6621 100.741 39.1808 105.039Z" fill="black"/>
<path d="M39.0278 195.589L38.8203 201.992L42.1943 201.839L42.6933 196.044L39.0278 195.589Z" fill="#FFB573"/>
<path d="M42.9501 201.972C42.931 201.972 42.9126 201.965 42.8975 201.954C42.8824 201.942 42.8714 201.926 42.8661 201.908C42.8616 201.889 42.8625 201.869 42.8686 201.851C42.8747 201.833 42.8858 201.816 42.9007 201.804C42.96 201.764 44.2295 200.855 44.8767 200.964C45.0005 200.985 45.1118 201.052 45.1879 201.152C45.2363 201.205 45.267 201.273 45.2758 201.344C45.2847 201.416 45.2712 201.488 45.2373 201.552C44.9294 201.82 44.534 201.966 44.1258 201.962C43.735 202.001 43.3415 202.005 42.9501 201.972ZM43.2317 201.819C43.9628 201.819 44.9409 201.73 45.094 201.458C45.094 201.424 45.1385 201.369 45.0595 201.261C45.0375 201.229 45.0088 201.203 44.9754 201.184C44.9421 201.166 44.905 201.154 44.8668 201.152C44.8063 201.142 44.7445 201.142 44.684 201.152C44.1627 201.282 43.6702 201.508 43.2317 201.819Z" fill="#CAB16C"/>
<path d="M42.901 201.972C42.8862 201.965 42.8738 201.953 42.8651 201.939C42.8564 201.925 42.8517 201.909 42.8516 201.893C42.8516 201.843 42.8516 200.791 43.3011 200.332C43.3652 200.266 43.442 200.213 43.5269 200.178C43.6118 200.142 43.703 200.124 43.7951 200.124C44.052 200.124 44.1409 200.243 44.1607 200.347C44.2891 200.776 43.4444 201.71 42.9998 201.962C42.9886 201.966 42.9763 201.966 42.9652 201.962C42.9559 201.968 42.9453 201.973 42.9342 201.974C42.9231 201.976 42.9117 201.975 42.901 201.972ZM43.7506 200.302C43.6342 200.314 43.5257 200.366 43.4444 200.45C43.1913 200.816 43.0552 201.25 43.0541 201.695C43.5036 201.359 44.0421 200.638 43.9976 200.381C43.9976 200.357 43.968 200.292 43.805 200.292H43.7506V200.302Z" fill="#CAB16C"/>
<path d="M42.4838 201.473L38.2502 201.908C38.1731 201.915 38.1007 201.948 38.0451 202.002C37.9894 202.056 37.9537 202.127 37.944 202.204L37.5438 205.726C37.5341 205.801 37.5393 205.876 37.5589 205.948C37.5785 206.021 37.6123 206.089 37.6582 206.148C37.7041 206.207 37.7613 206.257 37.8264 206.294C37.8916 206.331 37.9634 206.354 38.0378 206.364H38.1613C39.6828 206.181 41.0315 205.954 42.9334 205.766C45.1761 205.534 44.6327 205.86 47.2707 205.628C48.8614 205.489 48.97 203.651 48.2883 203.651C45.1662 203.577 44.7513 202.663 43.4471 201.675C43.1628 201.489 42.819 201.417 42.4838 201.473Z" fill="#263238"/>
<path opacity="0.1" d="M38.997 196.597L38.918 198.998L42.4254 199.161L42.5933 197.234L38.997 196.597Z" fill="black"/>
<path d="M37.0508 195.209L37.2286 198L44.7918 198.405L45.3549 195.545L37.0508 195.209Z" fill="#263238"/>
<path d="M62.8867 194.73L64.0822 201.023L67.3377 200.139L66.5621 194.374L62.8867 194.73Z" fill="#FFB573"/>
<path d="M68.3267 200.04C68.3078 200.04 68.2893 200.034 68.2736 200.024C68.2578 200.013 68.2454 199.998 68.2378 199.981C68.2302 199.963 68.2284 199.944 68.2329 199.925C68.2373 199.906 68.2477 199.89 68.2625 199.877C68.3119 199.833 69.4975 198.805 70.1694 198.855C70.2952 198.862 70.4136 198.916 70.5003 199.008C70.5534 199.057 70.5899 199.121 70.6049 199.192C70.62 199.263 70.6128 199.337 70.5843 199.403C70.4658 199.64 69.9915 199.823 69.5173 199.897C69.1249 199.977 68.7268 200.025 68.3267 200.04ZM68.5935 199.858C69.3246 199.808 70.2879 199.611 70.4164 199.324C70.4164 199.289 70.446 199.23 70.3571 199.131C70.3328 199.102 70.3018 199.078 70.2666 199.062C70.2313 199.047 70.1929 199.04 70.1545 199.042C70.0957 199.033 70.0356 199.033 69.9767 199.042C69.4683 199.224 68.9989 199.501 68.5935 199.858Z" fill="#CAB16C"/>
<path d="M68.2743 200.07C68.259 200.064 68.2455 200.053 68.2352 200.041C68.2248 200.028 68.2179 200.012 68.215 199.996C68.215 199.947 68.1113 198.894 68.5164 198.395C68.5771 198.322 68.6522 198.261 68.7372 198.218C68.8222 198.175 68.9152 198.149 69.0104 198.143C69.2672 198.119 69.371 198.227 69.4006 198.331C69.5637 198.746 68.8078 199.754 68.4126 200.05H68.3731C68.361 200.064 68.3448 200.073 68.327 200.077C68.3092 200.08 68.2907 200.078 68.2743 200.07ZM68.9659 198.326C68.8514 198.348 68.7482 198.409 68.6745 198.499C68.4543 198.886 68.3577 199.33 68.3978 199.774C68.8177 199.398 69.2919 198.632 69.2178 198.376C69.2178 198.376 69.1833 198.292 69.0153 198.311H68.9659V198.326Z" fill="#CAB16C"/>
<path d="M67.8281 199.576L63.6538 200.401C63.577 200.415 63.5074 200.455 63.4569 200.514C63.4064 200.574 63.3782 200.649 63.3771 200.727L63.2932 204.274C63.2892 204.425 63.3451 204.572 63.4487 204.682C63.5524 204.792 63.6953 204.857 63.8465 204.862H63.965C65.447 204.536 66.7858 204.19 68.663 203.824C70.8711 203.39 70.3623 203.765 72.9706 203.286C74.5416 202.999 74.4526 201.162 73.7956 201.206C70.6785 201.424 70.1845 200.564 68.7963 199.724C68.5028 199.557 68.1581 199.505 67.8281 199.576Z" fill="#263238"/>
<path opacity="0.1" d="M63.0742 195.723L63.5238 198.079L66.9818 197.477L66.7199 195.56L63.0742 195.723Z" fill="black"/>
<path d="M60.875 194.789L61.6555 197.476L69.1248 196.222L69.0458 193.307L60.875 194.789Z" fill="#263238"/>
<path d="M42.2356 72.8699C42.2356 72.8699 43.7176 71.215 43.609 69.7627C43.609 69.7627 44.7896 69.0859 45.3231 67.0704C45.3231 67.0704 52.0514 66.7147 52.3626 65.1734C52.6739 63.6321 50.6633 63.9285 50.6633 63.9285C50.6633 63.9285 52.827 63.0986 51.4487 61.8488C50.0705 60.599 48.4255 62.2094 48.4255 62.2094C48.4255 62.2094 49.8778 59.7394 47.8722 59.6554C45.9752 59.5813 45.8962 62.7825 44.8538 62.6837C44.1968 62.6194 44.5426 59.774 42.2356 62.9801C39.9287 66.1861 40.4622 67.3717 40.4622 67.3717C40.4622 67.3717 37.676 67.6385 37.7353 69.2835C37.7946 70.9285 38.7233 70.5284 38.9802 70.973C39.2371 71.4176 38.2342 71.961 39.079 72.8699C39.9237 73.7789 42.2356 72.8699 42.2356 72.8699Z" fill="#263238"/>
<path d="M41.0625 74.0457C41.2538 74.3654 41.5064 74.6443 41.8056 74.8664C42.1048 75.0884 42.4448 75.2494 42.8063 75.3399C43.7943 75.5721 44.229 74.6928 43.9277 73.7888C43.651 72.9786 42.8162 71.8819 41.8529 72.0351C41.6413 72.076 41.4435 72.1697 41.2778 72.3075C41.1122 72.4452 40.9839 72.6226 40.9051 72.8231C40.8263 73.0237 40.7994 73.2409 40.8269 73.4546C40.8544 73.6683 40.9354 73.8716 41.0625 74.0457Z" fill="#FFB573"/>
<path d="M40.6809 67.678C40.3517 67.2426 40.1967 66.7001 40.2462 66.1565C40.2857 65.1685 39.2582 65.4649 39.3767 66.2948C39.4139 66.6359 39.5613 66.9556 39.7967 67.2052C40.0321 67.4549 40.3425 67.6209 40.6809 67.678Z" fill="#263238"/>
<path d="M79.3574 95.8656L80.627 95.5248L81.8817 96.7795C81.9654 96.4227 81.9566 96.0503 81.8561 95.6978C81.7557 95.3452 81.5669 95.0242 81.3077 94.765C81.0485 94.5058 80.7275 94.317 80.3749 94.2166C80.0224 94.1161 79.6501 94.1073 79.2932 94.191L76.9368 91.8346L75.0497 89.9475L72.6933 87.5911C72.777 87.2343 72.7682 86.8619 72.6678 86.5094C72.5673 86.1569 72.3785 85.8358 72.1193 85.5766C71.8601 85.3174 71.5391 85.1286 71.1865 85.0282C70.834 84.9277 70.4617 84.9189 70.1048 85.0026L71.3595 86.2573L71.0187 87.5269L69.7491 87.8678L68.4943 86.613C68.4107 86.9699 68.4195 87.3423 68.5199 87.6948C68.6204 88.0473 68.8091 88.3684 69.0683 88.6276C69.3276 88.8868 69.6486 89.0755 70.0011 89.176C70.3537 89.2764 70.726 89.2852 71.0829 89.2016L73.4393 91.558L75.3264 93.4401L77.6827 95.7965C77.5995 96.1535 77.6086 96.5259 77.7091 96.8785C77.8096 97.231 77.9982 97.5522 78.2572 97.8117C78.5162 98.0712 78.837 98.2604 79.1894 98.3616C79.5418 98.4628 79.9141 98.4725 80.2713 98.39L79.0412 97.1352L79.3574 95.8656Z" fill="#263238"/>
<path opacity="0.4" d="M79.3574 95.8656L80.627 95.5248L81.8817 96.7795C81.9654 96.4227 81.9566 96.0503 81.8561 95.6978C81.7557 95.3452 81.5669 95.0242 81.3077 94.765C81.0485 94.5058 80.7275 94.317 80.3749 94.2166C80.0224 94.1161 79.6501 94.1073 79.2932 94.191L76.9368 91.8346L75.0497 89.9475L72.6933 87.5911C72.777 87.2343 72.7682 86.8619 72.6678 86.5094C72.5673 86.1569 72.3785 85.8358 72.1193 85.5766C71.8601 85.3174 71.5391 85.1286 71.1865 85.0282C70.834 84.9277 70.4617 84.9189 70.1048 85.0026L71.3595 86.2573L71.0187 87.5269L69.7491 87.8678L68.4943 86.613C68.4107 86.9699 68.4195 87.3423 68.5199 87.6948C68.6204 88.0473 68.8091 88.3684 69.0683 88.6276C69.3276 88.8868 69.6486 89.0755 70.0011 89.176C70.3537 89.2764 70.726 89.2852 71.0829 89.2016L73.4393 91.558L75.3264 93.4401L77.6827 95.7965C77.5995 96.1535 77.6086 96.5259 77.7091 96.8785C77.8096 97.231 77.9982 97.5522 78.2572 97.8117C78.5162 98.0712 78.837 98.2604 79.1894 98.3616C79.5418 98.4628 79.9141 98.4725 80.2713 98.39L79.0412 97.1352L79.3574 95.8656Z" fill="#FFFEFA"/>
<path d="M49.1745 111.481L51.027 109.367L49.8958 108.211L47.7814 110.058L47.5147 110.577C47.4314 110.732 47.3266 110.875 47.2035 111.002L44.6445 113.561L45.677 114.608L48.2359 112.049C48.3613 111.925 48.5045 111.82 48.6607 111.738L49.1745 111.481Z" fill="#263238"/>
<path opacity="0.7" d="M49.1745 111.481L51.027 109.367L49.8958 108.211L47.7814 110.058L47.5147 110.577C47.4314 110.732 47.3266 110.875 47.2035 111.002L44.6445 113.561L45.677 114.608L48.2359 112.049C48.3613 111.925 48.5045 111.82 48.6607 111.738L49.1745 111.481Z" fill="#FFFEFA"/>
<path d="M50.9943 109.401L51.024 109.367L49.8927 108.211H49.8581C49.7692 108.379 49.9125 108.705 50.2138 109.021C50.5151 109.337 50.8313 109.49 50.9943 109.401Z" fill="#263238"/>
<path opacity="0.4" d="M50.9943 109.401L51.024 109.367L49.8927 108.211H49.8581C49.7692 108.379 49.9125 108.705 50.2138 109.021C50.5151 109.337 50.8313 109.49 50.9943 109.401Z" fill="#FFFEFA"/>
<path d="M44.6858 115.971L45.4466 115.201L45.491 115.25C45.5445 115.302 45.6163 115.332 45.6911 115.332C45.7658 115.332 45.8376 115.302 45.8912 115.25C45.9183 115.224 45.94 115.192 45.9547 115.158C45.9695 115.123 45.9771 115.085 45.9771 115.048C45.9771 115.01 45.9695 114.972 45.9547 114.938C45.94 114.903 45.9183 114.871 45.8912 114.845L44.3795 113.329C44.3254 113.277 44.2532 113.249 44.1784 113.25C44.1036 113.25 44.0322 113.281 43.9793 113.333C43.9264 113.386 43.8963 113.458 43.8954 113.533C43.8945 113.607 43.9229 113.679 43.9744 113.734L44.0238 113.778L43.2532 114.549C43.113 114.525 42.9689 114.537 42.8348 114.584C42.7007 114.632 42.5811 114.713 42.4875 114.82L38.0415 119.266C37.5129 119.795 37.7797 120.393 38.3033 120.921C38.827 121.45 39.4296 121.712 39.9582 121.183L44.4042 116.737C44.512 116.644 44.5943 116.524 44.6436 116.391C44.6928 116.257 44.7073 116.112 44.6858 115.971Z" fill="#CAB16C"/>
<path opacity="0.4" d="M44.6858 115.971L45.4466 115.201L45.491 115.25C45.5445 115.302 45.6163 115.332 45.6911 115.332C45.7658 115.332 45.8376 115.302 45.8912 115.25C45.9183 115.224 45.94 115.192 45.9547 115.158C45.9695 115.123 45.9771 115.085 45.9771 115.048C45.9771 115.01 45.9695 114.972 45.9547 114.938C45.94 114.903 45.9183 114.871 45.8912 114.845L44.3795 113.329C44.3254 113.277 44.2532 113.249 44.1784 113.25C44.1036 113.25 44.0322 113.281 43.9793 113.333C43.9264 113.386 43.8963 113.458 43.8954 113.533C43.8945 113.607 43.9229 113.679 43.9744 113.734L44.0238 113.778L43.2532 114.549C43.113 114.525 42.9689 114.537 42.8348 114.584C42.7007 114.632 42.5811 114.713 42.4875 114.82L38.0415 119.266C37.5129 119.795 37.7797 120.393 38.3033 120.921C38.827 121.45 39.4296 121.712 39.9582 121.183L44.4042 116.737C44.512 116.644 44.5943 116.524 44.6436 116.391C44.6928 116.257 44.7073 116.112 44.6858 115.971Z" fill="#FFFEFA"/>
<path d="M36.4906 112.978L38.8914 114.998C38.8914 114.998 40.7242 114.573 41.7813 115.181C42.8385 115.789 42.6359 116.505 43.4016 116.89C44.1673 117.276 44.0438 118.432 44.0438 118.432C44.0438 118.432 40.6797 120.408 39.5633 119.637C38.4468 118.866 37.3452 116.895 37.3452 116.895L34.1836 114.657L36.4906 112.978Z" fill="#FFB573"/>
<path d="M39.96 82.8981C39.96 82.8981 34.2938 83.2192 31.7399 89.8141C29.1859 96.409 25.8958 102.411 27.7879 107.598C29.6799 112.785 34.3729 115.912 34.3729 115.912C34.3729 115.912 36.9565 114.677 37.8309 112.454C37.8309 112.454 32.8909 108.339 33.6171 104.797C34.3432 101.255 39.1499 92.872 39.1499 92.872C39.1499 92.872 45.2112 85.1261 39.96 82.8981Z" fill="#263238"/>
</svg>
