<svg width="32" height="32" viewBox="0 0 32 32" fill="none" xmlns="http://www.w3.org/2000/svg">
<path d="M16.8192 28H5.32462C4.59284 28 4 27.4068 4 26.6753V5.32461C4 4.59293 4.59293 4 5.32462 4H26.6755C27.407 4 28 4.59293 28 5.32461V26.6753C28 27.4069 27.4069 28 26.6755 28H20.5597V18.7059H23.6793L24.1464 15.0838H20.5597V12.7713C20.5597 11.7226 20.8509 11.008 22.3546 11.008L24.2727 11.0072V7.76755C23.9409 7.7234 22.8024 7.62479 21.4778 7.62479C18.7124 7.62479 16.8192 9.31276 16.8192 12.4126V15.0838H13.6916V18.7059H16.8192V28Z" fill="#CAB16C"/>
</svg>
