<svg width="20" height="20" viewBox="0 0 20 20" fill="none" xmlns="http://www.w3.org/2000/svg">
<path d="M19.1673 18.9583H0.833984C0.492318 18.9583 0.208984 18.675 0.208984 18.3333C0.208984 17.9917 0.492318 17.7083 0.833984 17.7083H19.1673C19.509 17.7083 19.7923 17.9917 19.7923 18.3333C19.7923 18.675 19.509 18.9583 19.1673 18.9583Z" fill="#CAB16C"/>
<path d="M16.4844 18.9667C16.1427 18.9667 15.8594 18.6834 15.8594 18.3417V14.625C15.8594 14.2834 16.1427 14 16.4844 14C16.826 14 17.1094 14.2834 17.1094 14.625V18.3417C17.1094 18.6834 16.8344 18.9667 16.4844 18.9667Z" fill="#CAB16C"/>
<path d="M16.4994 15.25C15.141 15.25 14.041 14.15 14.041 12.7917V10.9C14.041 9.54169 15.141 8.44168 16.4994 8.44168C17.8577 8.44168 18.9577 9.54169 18.9577 10.9V12.7917C18.9577 14.15 17.8577 15.25 16.4994 15.25ZM16.4994 9.70002C15.8327 9.70002 15.291 10.2417 15.291 10.9084V12.8C15.291 13.4667 15.8327 14.0083 16.4994 14.0083C17.166 14.0083 17.7077 13.4667 17.7077 12.8V10.9084C17.7077 10.2417 17.166 9.70002 16.4994 9.70002Z" fill="#CAB16C"/>
<path d="M11.9172 18.9583C11.5755 18.9583 11.2922 18.675 11.2922 18.3333V5.02501C11.2922 3.70001 10.7338 3.13333 9.43384 3.13333H4.24219C2.93385 3.13333 2.36719 3.70001 2.36719 5.02501V18.3333C2.36719 18.675 2.08385 18.9583 1.74219 18.9583C1.40052 18.9583 1.11719 18.675 1.11719 18.3333V5.02501C1.11719 3.00001 2.22552 1.88333 4.24219 1.88333H9.43384C11.4422 1.88333 12.5422 3.00001 12.5422 5.02501V18.3333C12.5422 18.675 12.2588 18.9583 11.9172 18.9583Z" fill="#CAB16C"/>
<path d="M8.95899 7.5H4.83398C4.49232 7.5 4.20898 7.21667 4.20898 6.875C4.20898 6.53333 4.49232 6.25 4.83398 6.25H8.95899C9.30066 6.25 9.58399 6.53333 9.58399 6.875C9.58399 7.21667 9.30066 7.5 8.95899 7.5Z" fill="#CAB16C"/>
<path d="M8.95899 10.625H4.83398C4.49232 10.625 4.20898 10.3417 4.20898 10C4.20898 9.65833 4.49232 9.375 4.83398 9.375H8.95899C9.30066 9.375 9.58399 9.65833 9.58399 10C9.58399 10.3417 9.30066 10.625 8.95899 10.625Z" fill="#CAB16C"/>
<path d="M6.875 18.9583C6.53333 18.9583 6.25 18.675 6.25 18.3333V15.2083C6.25 14.8667 6.53333 14.5833 6.875 14.5833C7.21667 14.5833 7.5 14.8667 7.5 15.2083V18.3333C7.5 18.675 7.21667 18.9583 6.875 18.9583Z" fill="#CAB16C"/>
</svg>
