<svg width="32" height="32" viewBox="0 0 32 32" fill="none" xmlns="http://www.w3.org/2000/svg">
<path fill-rule="evenodd" clip-rule="evenodd" d="M16 4C12.741 4 12.3323 4.01381 11.0524 4.07221C9.77516 4.13047 8.90283 4.33334 8.13954 4.63001C7.35044 4.93663 6.68123 5.34695 6.01406 6.01406C5.34695 6.68123 4.93663 7.35044 4.63001 8.13954C4.33334 8.90283 4.13047 9.77516 4.07221 11.0524C4.01381 12.3323 4 12.741 4 16C4 19.259 4.01381 19.6677 4.07221 20.9476C4.13047 22.2248 4.33334 23.0972 4.63001 23.8605C4.93663 24.6496 5.34695 25.3188 6.01406 25.9859C6.68123 26.6531 7.35044 27.0634 8.13954 27.37C8.90283 27.6667 9.77516 27.8695 11.0524 27.9278C12.3323 27.9862 12.741 28 16 28C19.259 28 19.6677 27.9862 20.9476 27.9278C22.2248 27.8695 23.0972 27.6667 23.8605 27.37C24.6496 27.0634 25.3188 26.6531 25.9859 25.9859C26.6531 25.3188 27.0634 24.6496 27.37 23.8605C27.6667 23.0972 27.8695 22.2248 27.9278 20.9476C27.9862 19.6677 28 19.259 28 16C28 12.741 27.9862 12.3323 27.9278 11.0524C27.8695 9.77516 27.6667 8.90283 27.37 8.13954C27.0634 7.35044 26.6531 6.68123 25.9859 6.01406C25.3188 5.34695 24.6496 4.93663 23.8605 4.63001C23.0972 4.33334 22.2248 4.13047 20.9476 4.07221C19.6677 4.01381 19.259 4 16 4ZM16.0006 6.16219C19.2047 6.16219 19.5843 6.17443 20.8496 6.23217C22.0196 6.28552 22.655 6.48101 23.0779 6.64534C23.638 6.86303 24.0377 7.12307 24.4576 7.54301C24.8776 7.9629 25.1376 8.36265 25.3553 8.92278C25.5196 9.34562 25.7151 9.98101 25.7685 11.151C25.8262 12.4164 25.8384 12.7959 25.8384 16.0001C25.8384 19.2042 25.8262 19.5837 25.7685 20.8491C25.7151 22.0191 25.5196 22.6544 25.3553 23.0773C25.1376 23.6374 24.8776 24.0372 24.4576 24.4571C24.0377 24.877 23.638 25.137 23.0779 25.3547C22.655 25.5191 22.0196 25.7146 20.8496 25.7679C19.5845 25.8256 19.205 25.8379 16.0006 25.8379C12.7962 25.8379 12.4168 25.8256 11.1516 25.7679C9.98158 25.7146 9.34619 25.5191 8.92335 25.3547C8.36322 25.137 7.96347 24.877 7.54358 24.4571C7.12368 24.0372 6.8636 23.6374 6.64591 23.0773C6.48158 22.6544 6.28608 22.0191 6.23273 20.8491C6.175 19.5837 6.16276 19.2042 6.16276 16.0001C6.16276 12.7959 6.175 12.4164 6.23273 11.151C6.28608 9.98101 6.48158 9.34562 6.64591 8.92278C6.8636 8.36265 7.12364 7.9629 7.54358 7.54301C7.96347 7.12307 8.36322 6.86303 8.92335 6.64534C9.34619 6.48101 9.98158 6.28552 11.1516 6.23217C12.4169 6.17443 12.7965 6.16219 16.0006 6.16219ZM9.83724 16C9.83724 12.5967 12.5961 9.83781 15.9994 9.83781C19.4027 9.83781 22.1616 12.5967 22.1616 16C22.1616 19.4033 19.4027 22.1621 15.9994 22.1621C12.5961 22.1621 9.83724 19.4033 9.83724 16ZM16 20C13.7909 20 12 18.2091 12 16C12 13.7909 13.7909 12 16 12C18.2091 12 20 13.7909 20 16C20 18.2091 18.2091 20 16 20ZM22.4061 11.0344C23.2014 11.0344 23.8462 10.3897 23.8462 9.5944C23.8462 8.79911 23.2014 8.15438 22.4061 8.15438C21.6109 8.15438 20.9661 8.79911 20.9661 9.5944C20.9661 10.3897 21.6109 11.0344 22.4061 11.0344Z" fill="#CAB16C"/>
</svg>
