<svg width="32" height="32" viewBox="0 0 32 32" fill="none" xmlns="http://www.w3.org/2000/svg">
<path fill-rule="evenodd" clip-rule="evenodd" d="M6.82502 10.3617H6.79116C5.09784 10.3617 4 9.25383 4 7.84955C4 6.41794 5.13029 5.33331 6.85748 5.33331C8.58325 5.33331 9.6444 6.41521 9.67827 7.84545C9.67827 9.24973 8.58325 10.3617 6.82502 10.3617ZM28.0001 26.6667H22.6958V19.1671C22.6958 17.2041 21.866 15.8641 20.0415 15.8641C18.6459 15.8641 17.8698 16.7684 17.5086 17.6399C17.3893 17.9153 17.3914 18.2861 17.3937 18.6682C17.394 18.7201 17.3943 18.7722 17.3943 18.8243V26.6667H12.1393C12.1393 26.6667 12.2071 13.382 12.1393 12.1744H17.3943V14.4489C17.7047 13.4544 19.3839 12.0351 22.0636 12.0351C25.3881 12.0351 28.0001 14.1196 28.0001 18.6084V26.6667ZM9.28327 12.1744H4.60547V26.6666H9.28327V12.1744Z" fill="#CAB16C"/>
</svg>
