<svg width="14" height="18" viewBox="0 0 14 18" fill="none" xmlns="http://www.w3.org/2000/svg">
<path d="M4.76479 14.3535L4.76466 14.3534C3.71557 13.1542 2.73016 12.0257 2.0022 10.8654C1.27834 9.71166 0.833408 8.56309 0.833344 7.33368C0.835257 5.6987 1.4856 4.13123 2.64171 2.97512C3.79776 1.81907 5.36513 1.16873 7.00001 1.16675C8.63489 1.16873 10.2023 1.81907 11.3583 2.97512C12.5145 4.1313 13.1648 5.69889 13.1667 7.33398C13.1665 8.56327 12.7216 9.71175 11.9978 10.8654C11.2699 12.0257 10.2844 13.1542 9.23536 14.3534L9.23523 14.3535L9.21267 14.3793C8.56155 15.1241 7.87641 15.9079 7.26401 16.7032C7.23287 16.7436 7.19287 16.7763 7.14711 16.7988C7.10134 16.8213 7.05102 16.833 7.00001 16.833C6.949 16.833 6.89868 16.8213 6.85292 16.7988C6.80715 16.7763 6.76715 16.7436 6.73601 16.7032C6.12361 15.9079 5.43847 15.1241 4.78736 14.3793L4.76479 14.3535ZM5.3333 9.82782C5.82665 10.1575 6.40667 10.3334 7.00001 10.3334C7.79566 10.3334 8.55872 10.0173 9.12133 9.45474C9.68394 8.89213 10 8.12906 10 7.33342C10 6.74007 9.82406 6.16005 9.49442 5.6667C9.16477 5.17336 8.69624 4.78884 8.14806 4.56178C7.59988 4.33471 6.99668 4.2753 6.41474 4.39106C5.8328 4.50681 5.29825 4.79254 4.87869 5.21209C4.45913 5.63165 4.17341 6.1662 4.05765 6.74814C3.9419 7.33009 4.00131 7.93329 4.22837 8.48147C4.45543 9.02964 4.83995 9.49818 5.3333 9.82782Z" stroke="#CAB16C"/>
</svg>
