<svg width="32" height="32" viewBox="0 0 32 32" fill="none" xmlns="http://www.w3.org/2000/svg">
<path fill-rule="evenodd" clip-rule="evenodd" d="M25.6401 20.3463L22.2534 19.9596C21.4401 19.8663 20.6401 20.1463 20.0667 20.7196L17.6134 23.1729C13.8401 21.2529 10.7467 18.1729 8.82672 14.3863L11.2934 11.9196C11.8667 11.3463 12.1467 10.5463 12.0534 9.73294L11.6667 6.37294C11.5067 5.02627 10.3734 4.01294 9.01339 4.01294H6.70672C5.20005 4.01294 3.94672 5.26627 4.04005 6.77294C4.74672 18.1596 13.8534 27.2529 25.2267 27.9596C26.7334 28.0529 27.9867 26.7996 27.9867 25.2929V22.9863C28.0001 21.6396 26.9867 20.5063 25.6401 20.3463Z" fill="#CAB16C"/>
</svg>
