<svg width="34" height="34" viewBox="0 0 34 34" fill="none" xmlns="http://www.w3.org/2000/svg">
<path fill-rule="evenodd" clip-rule="evenodd" d="M21.6664 10.9373C20.0664 12.004 19.2344 13.9626 21.6664 15.604C22.9998 18.9373 25.4798 18.04 26.9478 16.4933C28.6189 14.092 29.0462 11.0384 28.0984 8.27063C25.7544 10.0373 23.6664 9.60396 21.6664 10.9373Z" stroke="#CAB16C" stroke-width="1.5" stroke-linecap="round" stroke-linejoin="round"/>
<path fill-rule="evenodd" clip-rule="evenodd" d="M17.0266 6.23198C18.7519 8.26398 19.6652 10.9373 15.5492 12.7333C13.6652 16.9386 10.7999 15.3813 8.89458 13.1333C6.98924 10.8853 6.25858 4.87865 7.93191 1.70398C11.0332 4.32398 14.8652 3.69065 17.0266 6.23198Z" stroke="#CAB16C" stroke-width="1.5" stroke-linecap="round" stroke-linejoin="round"/>
<path d="M24.9985 12.9373C20.9985 14.9373 18.9985 20.2706 18.9985 20.2706C17.5905 14.9632 14.6923 10.1698 10.6465 6.45728" stroke="#CAB16C" stroke-width="1.5" stroke-linecap="round" stroke-linejoin="round"/>
<path fill-rule="evenodd" clip-rule="evenodd" d="M1.66602 20.8706C1.66602 20.5945 1.88987 20.3706 2.16602 20.3706H6.49935C6.77549 20.3706 6.99935 20.5945 6.99935 20.8706V30.5373C6.99935 30.8134 6.77549 31.0373 6.49935 31.0373H2.16602C1.88987 31.0373 1.66602 30.8134 1.66602 30.5373V20.8706Z" stroke="#CAB16C" stroke-width="1.5" stroke-linecap="round" stroke-linejoin="round"/>
<path d="M7 29.0374C21.304 33.8067 16.0293 33.856 32.3333 25.704C31.411 24.4654 29.8143 23.9332 28.3333 24.3707L22.4213 26.3334" stroke="#CAB16C" stroke-width="1.5" stroke-linecap="round" stroke-linejoin="round"/>
<path d="M7 21.704H11C13.2694 21.7841 15.4197 22.7398 17 24.3706H21C21.5333 24.2749 22.0723 24.506 22.3705 24.9584C22.6687 25.4107 22.6687 25.9972 22.3705 26.4496C22.0723 26.9019 21.5333 27.1331 21 27.0373H13.6667" stroke="#CAB16C" stroke-width="1.5" stroke-linecap="round" stroke-linejoin="round"/>
</svg>
