<svg width="20" height="20" viewBox="0 0 20 20" fill="none" xmlns="http://www.w3.org/2000/svg">
<path d="M7.63314 9.68332C7.60814 9.68332 7.59147 9.68332 7.56647 9.68332C7.52481 9.67499 7.46647 9.67499 7.41647 9.68332C4.9998 9.60832 3.1748 7.70832 3.1748 5.36666C3.1748 2.98332 5.11647 1.04166 7.4998 1.04166C9.88314 1.04166 11.8248 2.98332 11.8248 5.36666C11.8165 7.70832 9.98314 9.60832 7.65814 9.68332C7.6498 9.68332 7.64147 9.68332 7.63314 9.68332ZM7.4998 2.29166C5.80814 2.29166 4.4248 3.67499 4.4248 5.36666C4.4248 7.03332 5.7248 8.37499 7.38314 8.43332C7.43314 8.42499 7.54147 8.42499 7.64981 8.43332C9.28314 8.35832 10.5665 7.01666 10.5748 5.36666C10.5748 3.67499 9.19147 2.29166 7.4998 2.29166Z" fill="#CAB16C"/>
<path d="M13.783 9.79168C13.758 9.79168 13.733 9.79168 13.708 9.78334C13.3663 9.81668 13.0163 9.57501 12.983 9.23334C12.9496 8.89168 13.158 8.58334 13.4996 8.54168C13.5996 8.53334 13.708 8.53334 13.7996 8.53334C15.0163 8.46668 15.9663 7.46668 15.9663 6.24168C15.9663 4.97501 14.9413 3.95001 13.6746 3.95001C13.333 3.95834 13.0496 3.67501 13.0496 3.33334C13.0496 2.99168 13.333 2.70834 13.6746 2.70834C15.6246 2.70834 17.2163 4.30001 17.2163 6.25001C17.2163 8.16668 15.7163 9.71668 13.808 9.79168C13.7996 9.79168 13.7913 9.79168 13.783 9.79168Z" fill="#CAB16C"/>
<path d="M7.64134 18.7917C6.00801 18.7917 4.36634 18.375 3.12467 17.5417C1.96634 16.775 1.33301 15.725 1.33301 14.5833C1.33301 13.4417 1.96634 12.3833 3.12467 11.6083C5.62467 9.95001 9.67467 9.95001 12.158 11.6083C13.308 12.375 13.9497 13.425 13.9497 14.5667C13.9497 15.7083 13.3163 16.7667 12.158 17.5417C10.908 18.375 9.27467 18.7917 7.64134 18.7917ZM3.81634 12.6583C3.01634 13.1917 2.58301 13.875 2.58301 14.5917C2.58301 15.3 3.02467 15.9833 3.81634 16.5083C5.89134 17.9 9.39134 17.9 11.4663 16.5083C12.2663 15.975 12.6997 15.2917 12.6997 14.575C12.6997 13.8667 12.258 13.1833 11.4663 12.6583C9.39134 11.275 5.89134 11.275 3.81634 12.6583Z" fill="#CAB16C"/>
<path d="M15.283 17.2917C14.9913 17.2917 14.733 17.0917 14.6746 16.7917C14.608 16.45 14.8246 16.125 15.158 16.05C15.683 15.9417 16.1663 15.7333 16.5413 15.4417C17.0163 15.0833 17.2746 14.6333 17.2746 14.1583C17.2746 13.6833 17.0163 13.2333 16.5496 12.8833C16.183 12.6 15.7246 12.4 15.183 12.275C14.8496 12.2 14.633 11.8667 14.708 11.525C14.783 11.1917 15.1163 10.975 15.458 11.05C16.1746 11.2083 16.7996 11.4917 17.308 11.8833C18.083 12.4667 18.5246 13.2917 18.5246 14.1583C18.5246 15.025 18.0746 15.85 17.2996 16.4417C16.783 16.8417 16.133 17.1333 15.4163 17.275C15.3663 17.2917 15.3246 17.2917 15.283 17.2917Z" fill="#CAB16C"/>
</svg>
