<svg width="53" height="40" viewBox="0 0 53 40" fill="none" xmlns="http://www.w3.org/2000/svg">
<g clip-path="url(#clip0_196_2372)">
<path d="M30.3393 39.5007C30.3393 39.5007 30.3393 39.0911 30.3393 38.2719C30.3393 37.3503 30.3393 36.4799 30.3393 35.6607C30.3393 34.8415 30.3393 34.4319 30.3393 34.4319C30.3393 34.4319 30.9046 34.2783 32.0353 33.9711C33.1659 33.5615 34.5022 32.8959 36.044 31.9743C37.5858 30.9503 38.9221 29.5679 40.0527 27.8271C41.1834 26.0863 41.7487 23.8335 41.7487 21.0687C41.6459 21.1711 41.389 21.2223 40.9778 21.2223C40.6695 21.2223 40.4125 21.2223 40.2069 21.2223C37.3289 21.2223 34.9647 20.3007 33.1145 18.4575C31.2644 16.6143 30.3393 14.2591 30.3393 11.3919C30.3393 8.11509 31.2644 5.5039 33.1145 3.5583C35.0675 1.6127 37.5344 0.639893 40.5153 0.639893C44.8324 0.639893 47.916 2.0735 49.7662 4.9407C51.6164 7.7055 52.5415 10.6751 52.5415 13.8495C52.5415 16.4095 52.1303 19.1743 51.308 22.1439C50.4857 25.1135 49.2009 27.9295 47.4535 30.5919C45.7061 33.2543 43.3933 35.4047 40.5153 37.0431C37.74 38.6815 34.348 39.5007 30.3393 39.5007ZM0.582184 39.5007C0.582184 39.5007 0.582184 39.0911 0.582184 38.2719C0.582184 37.3503 0.582184 36.4799 0.582184 35.6607C0.582184 34.8415 0.582184 34.4319 0.582184 34.4319C0.582184 34.4319 1.14752 34.2783 2.27818 33.9711C3.40885 33.5615 4.74509 32.8959 6.28691 31.9743C7.82873 30.9503 9.16497 29.5679 10.2956 27.8271C11.4263 26.0863 11.9916 23.8335 11.9916 21.0687C11.8889 21.1711 11.6319 21.2223 11.2207 21.2223C10.9124 21.2223 10.6554 21.2223 10.4498 21.2223C7.57176 21.2223 5.20764 20.3007 3.35746 18.4575C1.50728 16.6143 0.582184 14.2591 0.582184 11.3919C0.582184 8.11509 1.50728 5.5039 3.35746 3.5583C5.31043 1.6127 7.77734 0.639893 10.7582 0.639893C15.0753 0.639893 18.1589 2.0735 20.0091 4.9407C21.8593 7.7055 22.7844 10.6751 22.7844 13.8495C22.7844 16.4095 22.3732 19.1743 21.5509 22.1439C20.7286 25.1135 19.4438 27.9295 17.6964 30.5919C15.949 33.2543 13.6362 35.4047 10.7582 37.0431C7.98291 38.6815 4.59091 39.5007 0.582184 39.5007Z" fill="#CAB16C" fill-opacity="0.1"/>
</g>
<defs>
<clipPath id="clip0_196_2372">
<rect width="53" height="40" fill="white"/>
</clipPath>
</defs>
</svg>
