<svg width="32" height="34" viewBox="0 0 32 34" fill="none" xmlns="http://www.w3.org/2000/svg">
<path d="M26.6148 20.5079L30.4521 27.1533C30.8174 27.7879 30.5268 28.2079 29.8041 28.0866L25.9841 27.4413L24.6668 31.0786C24.4161 31.7679 23.9041 31.8159 23.5308 31.1839L19.8574 24.9999" stroke="#CAB16C" stroke-width="1.5" stroke-linecap="round" stroke-linejoin="round"/>
<path d="M5.38577 20.5079L1.54844 27.1533C1.1831 27.7879 1.47377 28.2079 2.19644 28.0866L6.01644 27.4413L7.79777 32.3333L12.1338 24.9999" stroke="#CAB16C" stroke-width="1.5" stroke-linecap="round" stroke-linejoin="round"/>
<path fill-rule="evenodd" clip-rule="evenodd" d="M26.4532 12.3333C26.4533 10.8127 25.5253 9.44609 24.1119 8.8853C24.713 7.4891 24.4021 5.86749 23.3272 4.79262C22.2524 3.71774 20.6308 3.40684 19.2346 4.00797C18.6727 2.59493 17.3059 1.66748 15.7852 1.66748C14.2646 1.66748 12.8977 2.59493 12.3359 4.00797C10.9397 3.40684 9.31808 3.71774 8.2432 4.79262C7.16832 5.86749 6.85743 7.4891 7.45855 8.8853C6.04615 9.44701 5.11914 10.8133 5.11914 12.3333C5.11914 13.8533 6.04615 15.2196 7.45855 15.7813C6.85743 17.1775 7.16832 18.7991 8.2432 19.874C9.31808 20.9489 10.9397 21.2598 12.3359 20.6586C12.8977 22.0717 14.2646 22.9991 15.7852 22.9991C17.3059 22.9991 18.6727 22.0717 19.2346 20.6586C20.6308 21.2598 22.2524 20.9489 23.3272 19.874C24.4021 18.7991 24.713 17.1775 24.1119 15.7813C25.5253 15.2205 26.4533 13.8539 26.4532 12.3333Z" stroke="#CAB16C" stroke-width="1.5" stroke-linecap="round" stroke-linejoin="round"/>
<path fill-rule="evenodd" clip-rule="evenodd" d="M16.4247 6.71463L17.794 9.66663H20.4607C20.7366 9.65464 20.9902 9.81786 21.0936 10.074C21.197 10.3302 21.1277 10.6237 20.9207 10.8066L18.606 13.0853L19.8887 16.0306C20.0038 16.3072 19.9297 16.6264 19.7046 16.8241C19.4795 17.0217 19.1534 17.0539 18.894 16.904L15.7953 15.1626L12.6967 16.904C12.4373 17.0539 12.1112 17.0217 11.8861 16.8241C11.6609 16.6264 11.5869 16.3072 11.702 16.0306L12.9847 13.0853L10.6673 10.808C10.459 10.6251 10.389 10.3305 10.4929 10.0735C10.5967 9.81654 10.8518 9.65332 11.1287 9.66663H13.7953L15.1687 6.71329C15.2908 6.47924 15.533 6.33261 15.7971 6.33289C16.0611 6.33317 16.303 6.48032 16.4247 6.71463Z" stroke="#CAB16C" stroke-width="1.5" stroke-linecap="round" stroke-linejoin="round"/>
</svg>
