<svg width="32" height="32" viewBox="0 0 32 32" fill="none" xmlns="http://www.w3.org/2000/svg">
<path fill-rule="evenodd" clip-rule="evenodd" d="M27.9999 28H23.4288C23.4288 17.2866 14.7135 8.57114 4.00019 8.57114V4C17.2335 4 27.9999 14.7666 27.9999 28ZM4 24.5714C4 22.678 5.53513 21.1428 7.42853 21.1428C9.32194 21.1428 10.8571 22.678 10.8571 24.5714C10.8571 26.4648 9.32194 28 7.42853 28C5.53513 28 4 26.4648 4 24.5714ZM15.429 28H20.0001C20.0001 19.1774 12.8225 11.9997 4 11.9997V16.5717C10.3016 16.5717 15.429 21.6982 15.429 28Z" fill="#CAB16C"/>
</svg>
