<svg width="32" height="32" viewBox="0 0 32 32" fill="none" xmlns="http://www.w3.org/2000/svg">
<path d="M22.666 4.66663H9.33268C5.33268 4.66663 2.66602 6.66663 2.66602 11.3333V20.6666C2.66602 25.3333 5.33268 27.3333 9.33268 27.3333H22.666C26.666 27.3333 29.3327 25.3333 29.3327 20.6666V11.3333C29.3327 6.66663 26.666 4.66663 22.666 4.66663ZM23.2927 12.7866L19.1194 16.12C18.2393 16.8266 17.1193 17.1733 15.9993 17.1733C14.8793 17.1733 13.746 16.8266 12.8793 16.12L8.70602 12.7866C8.27935 12.44 8.21268 11.8 8.54602 11.3733C8.89268 10.9466 9.51935 10.8666 9.94602 11.2133L14.1193 14.5466C15.1327 15.36 16.8527 15.36 17.866 14.5466L22.0394 11.2133C22.466 10.8666 23.106 10.9333 23.4394 11.3733C23.786 11.8 23.7193 12.44 23.2927 12.7866Z" fill="#CAB16C"/>
</svg>
