<svg width="42" height="9" viewBox="0 0 42 9" fill="none" xmlns="http://www.w3.org/2000/svg">
<path fill-rule="evenodd" clip-rule="evenodd" d="M20.746 0.419332C20.5729 0.644716 20.3315 0.993365 20.2097 1.19412C20.0013 1.53749 20.0002 1.58055 20.1906 1.92314C20.4887 2.45927 20.4559 2.58872 20.0619 2.42961C19.2204 2.08973 18.0203 2.36566 17.7164 2.96896C17.5432 3.31258 17.6233 3.38737 18.1767 3.39871C18.581 3.40697 18.6692 3.47505 19.0234 4.05256C19.5078 4.84244 19.8438 5.14854 20.2268 5.14854C20.4779 5.14854 20.5084 5.10315 20.443 4.82619C20.3358 4.37297 20.4747 3.89087 20.7587 3.72944C20.9941 3.5956 21 3.63557 21 5.33743C21 6.80269 20.9708 7.08262 20.8179 7.08262C20.7178 7.08262 20.5266 7.19866 20.3931 7.3405C20.2596 7.48233 20.093 7.59837 20.0229 7.59837C19.7071 7.59837 19.0599 7.09719 17.7447 5.83411C15.7038 3.87437 14.8297 3.41187 13.7497 3.7208C13.1466 3.89332 12.8267 4.2617 12.8267 4.78377C12.8267 5.52169 13.6903 6.02442 14.3317 5.65978C14.6229 5.49422 14.641 4.93205 14.3683 4.51855C14.2021 4.2666 14.1972 4.19968 14.3379 4.10491C14.8919 3.73228 15.7366 4.27279 17.8323 6.34122C18.461 6.9618 19.0213 7.46943 19.0773 7.46943C19.1333 7.46943 19.1792 7.53455 19.1792 7.61423C19.1792 7.84542 13.4973 7.67754 12.531 7.41786C11.4384 7.12427 10.6116 6.63933 10.2168 6.06026L9.87513 5.55934L9.54823 5.99451C9.11354 6.57318 8.38983 7.00564 7.28327 7.34797C6.48187 7.59579 5.99146 7.63718 3.18645 7.69353C1.43398 7.72873 3.05176e-05 7.8088 3.05176e-05 7.87134C3.05176e-05 7.93632 4.32542 7.98519 10.0621 7.98519H20.124L20.2011 8.31127C20.2486 8.51281 20.439 8.71885 20.6997 8.85088C21.0923 9.04971 21.1506 9.04971 21.5431 8.85088C21.8039 8.71885 21.9942 8.51281 22.0418 8.31127L22.1189 7.98519H32.0594C37.7257 7.98519 42 7.93619 42 7.87134C42 7.8088 40.5662 7.72886 38.8136 7.69379C35.4057 7.62558 34.8127 7.53403 33.5415 6.88006C33.1957 6.70212 32.7376 6.3447 32.5236 6.08592L32.1345 5.61517L31.7699 6.09804C31.3403 6.66679 30.5263 7.13381 29.4691 7.41786C28.6159 7.64724 22.8134 7.84697 22.8303 7.64647C22.8355 7.58458 23.2192 7.18577 23.6831 6.76027C24.147 6.33477 24.8938 5.6456 25.3428 5.22874C26.4492 4.20136 27.2376 3.81944 27.6621 4.10491C27.8028 4.19968 27.798 4.2666 27.6318 4.51855C27.359 4.93205 27.3771 5.49422 27.6683 5.65978C28.3102 6.02468 29.1387 5.54309 29.1587 4.79357C29.173 4.26028 28.8651 3.89655 28.2504 3.7208C27.1704 3.41187 26.2963 3.87437 24.2554 5.83411C23.4756 6.58311 22.6708 7.28737 22.467 7.39929C22.1189 7.59051 22.082 7.58715 21.8518 7.34269C21.7172 7.19969 21.5523 7.08262 21.4856 7.08262C21.4103 7.08262 21.3656 6.4084 21.3681 5.30971L21.3718 3.53681L21.6715 3.89861C21.9987 4.29355 22.0376 4.51777 21.8455 4.89917C21.7349 5.11863 21.7614 5.14854 22.0653 5.14854C22.4564 5.14854 22.819 4.83496 23.2327 4.13882C23.6406 3.45261 23.8548 3.29879 24.2777 3.38853C25.0748 3.55795 24.4925 2.5543 23.6505 2.30738C23.3554 2.22086 23.046 2.23582 22.6015 2.35831C22.046 2.51136 21.9711 2.50865 21.9711 2.33536C21.9711 2.22731 22.0608 2.03351 22.1704 1.90483C22.3567 1.68628 22.3476 1.63458 22.0335 1.12102C21.6599 0.510105 21.2377 -0.0139019 21.1306 0.000281376C21.0922 0.00543892 20.9191 0.193947 20.746 0.419332Z" fill="#CAB16C"/>
</svg>
