<svg width="85" height="121" viewBox="0 0 85 121" fill="none" xmlns="http://www.w3.org/2000/svg">
<path d="M19.4121 39.6223H29.1147" stroke="#F5F1E4" stroke-width="3" stroke-miterlimit="10"/>
<path d="M19.4121 42.4216H29.1147" stroke="#F5F1E4" stroke-width="3" stroke-miterlimit="10"/>
<path d="M19.4121 45.2209H29.1147" stroke="#F5F1E4" stroke-width="3" stroke-miterlimit="10"/>
<path d="M23.698 74.0168C26.4232 74.0168 28.6324 71.8055 28.6324 69.0777C28.6324 66.3498 26.4232 64.1385 23.698 64.1385C20.9729 64.1385 18.7637 66.3498 18.7637 69.0777C18.7637 71.8055 20.9729 74.0168 23.698 74.0168Z" fill="#F5F1E4"/>
<path d="M16.7968 64.3191C18.2163 64.3191 19.367 63.1673 19.367 61.7464C19.367 60.3255 18.2163 59.1736 16.7968 59.1736C15.3773 59.1736 14.2266 60.3255 14.2266 61.7464C14.2266 63.1673 15.3773 64.3191 16.7968 64.3191Z" fill="#F5F1E4"/>
<path d="M22.7814 56.4335C23.6002 56.4335 24.264 55.7691 24.264 54.9495C24.264 54.1299 23.6002 53.4655 22.7814 53.4655C21.9626 53.4655 21.2988 54.1299 21.2988 54.9495C21.2988 55.7691 21.9626 56.4335 22.7814 56.4335Z" fill="#F5F1E4"/>
<path d="M29.6771 63.0839C31.64 63.0839 33.2312 61.4911 33.2312 59.5264C33.2312 57.5616 31.64 55.9688 29.6771 55.9688C27.7143 55.9688 26.123 57.5616 26.123 59.5264C26.123 61.4911 27.7143 63.0839 29.6771 63.0839Z" fill="#F5F1E4"/>
<path d="M41.3042 26.7314C56.9332 18.9833 68.5614 10.5962 67.2765 7.99839L65.8044 5.02199C64.5194 2.42406 50.808 6.59926 35.179 14.3474C19.55 22.0956 7.92184 30.4826 9.2068 33.0805L10.6789 36.0569C11.9638 38.6547 25.6752 34.4796 41.3042 26.7314Z" fill="#D5CEB8"/>
<path d="M39.8327 23.755C55.4617 16.0068 67.0899 7.61969 65.8049 5.02185C64.52 2.42401 50.8086 6.59918 35.1796 14.3474C19.5506 22.0955 7.92249 30.4826 9.20741 33.0805C10.4923 35.6783 24.2037 31.5032 39.8327 23.755Z" fill="#F5F1E4"/>
<path d="M42.8839 13.3344C44.4102 16.4203 31.6029 22.7696 30.0765 19.6837C28.5502 16.5977 30.1799 12.6747 33.7165 10.9214C37.2532 9.16809 41.3575 10.2484 42.8839 13.3344Z" fill="#D5CEB8"/>
<path d="M11.0137 36.9114L18.4233 101.794H18.5036C18.5036 104.006 29.2824 105.799 42.5786 105.799C55.8747 105.799 66.6535 104.006 66.6535 101.794H66.734L74.1436 36.9114H11.0137Z" fill="#F5F1E4"/>
<path d="M42.5786 42.1626C60.0115 42.1626 74.1436 39.8116 74.1436 36.9114C74.1436 34.0113 60.0115 31.6603 42.5786 31.6603C25.1458 31.6603 11.0137 34.0113 11.0137 36.9114C11.0137 39.8116 25.1458 42.1626 42.5786 42.1626Z" fill="#D5CEB8"/>
<path d="M44.1821 51.4839H42.765C42.4115 51.4839 42.125 51.7708 42.125 52.1246V97.9732C42.125 98.327 42.4115 98.6138 42.765 98.6138H44.1821C44.5356 98.6138 44.8221 98.327 44.8221 97.9732V52.1246C44.8221 51.7708 44.5356 51.4839 44.1821 51.4839Z" fill="#D5CEB8"/>
<path d="M57.8548 98.6766L56.1497 98.4406C55.8775 98.4029 55.672 97.9271 55.6906 97.3779L57.2212 52.3474C57.2399 51.7982 57.4757 51.3835 57.7479 51.4212L59.453 51.6572C59.7252 51.6949 59.9307 52.1707 59.912 52.7199L58.3814 97.7503C58.3627 98.2995 58.127 98.7143 57.8548 98.6766Z" fill="#D5CEB8"/>
<path d="M28.1092 98.6766L29.8143 98.4406C30.0865 98.4029 30.292 97.9271 30.2733 97.3779L28.7427 52.3474C28.7241 51.7982 28.4883 51.3835 28.2161 51.4212L26.511 51.6572C26.2388 51.6949 26.0333 52.1707 26.052 52.7199L27.5826 97.7503C27.6012 98.2995 27.837 98.7143 28.1092 98.6766Z" fill="#D5CEB8"/>
<path d="M42 121C64.0914 121 82 116.075 82 110C82 103.925 64.0914 99 42 99C19.9086 99 2 103.925 2 110C2 116.075 19.9086 121 42 121Z" fill="#F5F1E4" fill-opacity="0.05"/>
</svg>
