<svg width="32" height="32" viewBox="0 0 32 32" fill="none" xmlns="http://www.w3.org/2000/svg">
<path d="M29.3064 15.2133C28.8531 7.48 21.8264 1.52001 13.7331 2.85334C8.15973 3.77334 3.69307 8.29332 2.82641 13.8666C2.31974 17.0933 2.98644 20.1467 4.43977 22.6667L3.25308 27.08C2.98642 28.08 3.90639 28.9867 4.89306 28.7067L9.23974 27.5067C11.2131 28.6667 13.5197 29.3333 15.9864 29.3333C23.5064 29.3333 29.7464 22.7067 29.3064 15.2133ZM22.5064 20.96C22.3864 21.2 22.2397 21.4267 22.0531 21.64C21.7197 22 21.3597 22.2667 20.9597 22.4267C20.5597 22.6 20.1197 22.68 19.6531 22.68C18.9731 22.68 18.2397 22.52 17.4797 22.1867C16.7064 21.8533 15.9464 21.4133 15.1864 20.8666C14.4131 20.3066 13.6931 19.68 12.9997 19C12.3064 18.3067 11.693 17.5733 11.133 16.8133C10.5864 16.0533 10.1464 15.2933 9.82641 14.5333C9.50641 13.7733 9.34643 13.04 9.34643 12.3467C9.34643 11.8933 9.42642 11.4533 9.58642 11.0533C9.74642 10.64 9.99977 10.2667 10.3598 9.93334C10.7864 9.50667 11.2531 9.30667 11.7464 9.30667C11.9331 9.30667 12.1197 9.34667 12.293 9.42667C12.4664 9.50667 12.6264 9.62666 12.7464 9.8L14.293 11.9866C14.413 12.16 14.5064 12.3067 14.5597 12.4533C14.6264 12.6 14.6531 12.7333 14.6531 12.8666C14.6531 13.0266 14.5998 13.1867 14.5064 13.3467C14.4131 13.5067 14.293 13.6667 14.133 13.8267L13.6264 14.36C13.5464 14.44 13.5198 14.52 13.5198 14.6267C13.5198 14.68 13.533 14.7333 13.5464 14.7867C13.573 14.84 13.5864 14.88 13.5998 14.92C13.7198 15.1467 13.9331 15.4266 14.2264 15.7733C14.5331 16.12 14.8531 16.48 15.1998 16.8267C15.5598 17.1867 15.9064 17.5066 16.2664 17.8133C16.6131 18.1066 16.9064 18.3067 17.133 18.4267C17.173 18.44 17.2131 18.4666 17.2531 18.48C17.3064 18.5066 17.3598 18.5067 17.4264 18.5067C17.5464 18.5067 17.6265 18.4667 17.7065 18.3867L18.213 17.88C18.3864 17.7067 18.5464 17.5867 18.6931 17.5067C18.8531 17.4133 18.9998 17.36 19.1731 17.36C19.3064 17.36 19.4397 17.3867 19.5864 17.4533C19.7331 17.52 19.8931 17.6 20.0531 17.72L22.2664 19.2933C22.4398 19.4133 22.5597 19.56 22.6397 19.72C22.7064 19.8933 22.7464 20.0533 22.7464 20.24C22.6664 20.4666 22.6131 20.72 22.5064 20.96Z" fill="#CAB16C"/>
</svg>
