<svg width="32" height="32" viewBox="0 0 32 32" fill="none" xmlns="http://www.w3.org/2000/svg">
<path fill-rule="evenodd" clip-rule="evenodd" d="M26.806 9.29305C27.5252 10.0408 27.76 11.739 27.76 11.739C27.76 11.739 28 13.7336 28 15.7275V17.5974C28 19.592 27.76 21.5859 27.76 21.5859C27.76 21.5859 27.5252 23.284 26.806 24.0318C25.9837 24.9164 25.0719 25.0078 24.5565 25.0595C24.4998 25.0652 24.4479 25.0704 24.4015 25.0761C21.043 25.3256 16 25.3333 16 25.3333C16 25.3333 9.76 25.2748 7.84 25.0854C7.74903 25.0679 7.63876 25.0543 7.51388 25.0389C6.9057 24.964 5.95113 24.8465 5.19325 24.0318C4.474 23.284 4.24 21.5859 4.24 21.5859C4.24 21.5859 4 19.592 4 17.5974V15.7275C4 13.7336 4.24 11.739 4.24 11.739C4.24 11.739 4.474 10.0408 5.19325 9.29305C6.0174 8.40718 6.93006 8.31677 7.44548 8.26571C7.50136 8.26017 7.55258 8.2551 7.5985 8.24952C10.957 8 15.9948 8 15.9948 8H16.0053C16.0053 8 21.043 8 24.4015 8.24952C24.4474 8.25511 24.4987 8.26019 24.5546 8.26573C25.0696 8.3168 25.9827 8.40732 26.806 9.29305ZM13.5208 12.9389L13.5216 19.8631L20.0053 16.4129L13.5208 12.9389Z" fill="#CAB16C"/>
</svg>
